<svg xmlns="http://www.w3.org/2000/svg" xmlns:xlink="http://www.w3.org/1999/xlink" width="433" height="433" viewBox="0 0 433 433" fill="none"><g opacity="1"  transform="translate(0 0)  rotate(0)"><g opacity="1"  transform="translate(5.5 52)  rotate(0)"><mask id="bg-mask-0" fill="white"><use xlink:href="#path_0"></use></mask><g mask="url(#bg-mask-0)" ><g opacity="1"  transform="translate(0 0)  rotate(0)"><g opacity="1"  transform="translate(0 0)  rotate(0)"><path id="路径 1" fill-rule="evenodd" style="fill:#41B883" opacity="1" d="M229.53 2.06629e-06L186.61 75.01L142.76 1.28516e-06L0 0L186.61 323.48L373.22 3.35983e-06L298.58 2.6879e-06L229.53 2.06629e-06Z"></path></g><g opacity="1"  transform="translate(0 0)  rotate(0)"><path id="路径 2" fill-rule="evenodd" style="fill:#41B883" opacity="1" d="M186.61 323.48L373.22 3.35983e-06L298.58 2.6879e-06L186.61 194.09L73.71 6.63558e-07L0 0L186.61 323.48Z"></path></g><g opacity="1"  transform="translate(73.71087646484375 0)  rotate(0)"><path id="路径 3" fill-rule="evenodd" style="fill:#35495E" opacity="1" d="M112.9 195.03L224.87 2.02434e-06L155.82 1.40273e-06L112.9 75.01L69.05 6.21607e-07L0 0L112.9 195.03Z"></path></g></g><g opacity="1"  transform="translate(224.5 59)  rotate(0)"><mask id="bg-mask-1" fill="white"><use xlink:href="#path_1"></use></mask><g mask="url(#bg-mask-1)" ><g opacity="1"  transform="translate(0 0)  rotate(0)"><g opacity="1"  transform="translate(0 0)  rotate(0)"></g><g opacity="1"  transform="translate(0 0)  rotate(0)"><path id="路径 2" fill-rule="evenodd" style="fill:#E72264" opacity="1" d="M280.252 82.9132L225.702 82.9132C225.522 82.9132 225.332 82.9132 225.122 82.9232C215.322 83.2632 207.442 91.3232 207.352 101.133L207.352 101.283L207.352 247.293C207.352 247.593 207.372 247.933 207.402 248.313C208.232 257.713 216.092 264.923 225.522 265.323C225.922 265.343 226.292 265.353 226.642 265.353L280.252 265.353L280.252 265.363L280.252 82.9132Z"></path><path id="路径 3" fill-rule="evenodd" style="fill:#E72264" opacity="1" d="M523.381 245.942C523.381 245.872 523.381 245.812 523.381 245.742L523.381 101.492C523.381 101.442 523.381 101.372 523.381 101.322C523.331 91.2424 515.131 83.0224 505.051 82.9224C504.981 82.9224 504.901 82.9224 504.831 82.9224L450.481 82.9224L450.481 265.372L502.821 265.372C503.531 265.372 504.301 265.332 505.101 265.272C515.261 264.502 523.301 256.142 523.381 245.942Z"></path><path id="路径 4" fill-rule="evenodd" style="fill:#E72264" opacity="1" d="M270.016 82.9224C264.426 82.9224 263.266 87.4624 267.456 93.0524L388.596 255.212C392.776 260.822 400.696 265.352 406.306 265.352L463.426 265.352C469.016 265.352 470.166 260.822 465.986 255.212L344.856 93.0524C340.676 87.4524 332.746 82.9224 327.146 82.9224L270.026 82.9224L270.016 82.9224Z"></path><path id="路径 5" fill-rule="evenodd" style="fill:#E72264" opacity="1" d="M401.781 82.9224C396.171 82.9224 388.251 87.4524 384.071 93.0524L262.941 255.212C258.751 260.822 259.911 265.352 265.501 265.352L322.621 265.352C328.221 265.352 336.151 260.822 340.331 255.212L461.461 93.0524C465.651 87.4624 464.491 82.9224 458.901 82.9224L401.781 82.9224Z"></path><path id="路径 6" fill-rule="evenodd" style="fill:#E72264" opacity="1" d="M452.453 35.01C452.453 54.35 468.123 70.02 487.463 70.02C506.803 70.02 522.473 54.35 522.473 35.01C522.473 15.67 506.793 0 487.463 0C468.123 0 452.453 15.67 452.453 35.01Z"></path><path id="路径 7" fill-rule="evenodd" style="fill:#E72264" opacity="1" d="M209.213 35.01C209.213 54.35 224.883 70.02 244.223 70.02C263.563 70.02 279.233 54.35 279.233 35.01C279.233 15.67 263.553 0 244.223 0C224.883 0 209.213 15.67 209.213 35.01Z"></path><path id="路径 8" fill-rule="evenodd" style="fill:#E72264" opacity="1" d="M640.405,0c19.85,0 35.94,16.09 35.94,35.93v55.28c0,19.85 -16.09,35.94 -35.94,35.94h-55.28c-19.84,0 -35.93,-16.09 -35.93,-35.94v-55.28c0,-19.84 16.09,-35.93 35.93,-35.93zM596.195,28.57c-7.63,0 -7.48,7.69 -7.48,7.69v38.08c0,2.23 -0.42,4.1 -1.25,5.63c-0.83,1.53 -1.94,2.68 -3.34,3.44c-1.4,0.77 -3.03,1.14 -4.88,1.14c-1.98,0 -3.75,-0.39 -5.3,-1.19c-1.57,-0.8 -2.92,-1.99 -4.07,-3.59c0,0 -4.89,-6.15 -10.54,-1.45c-5.52,4.59 0.51,11.11 0.51,11.11c2.17,2.8 4.82,4.98 7.98,6.54c3.16,1.56 6.9,2.34 11.23,2.34c5.1,0 9.51,-1.02 13.23,-3.06c3.72,-2.04 6.59,-4.9 8.6,-8.6c2.01,-3.69 3.01,-8.06 3.01,-13.09v-37.31c0.01,0.01 -0.07,-7.68 -7.7,-7.68zM663.435,74.86c-0.38,-3.55 -1.27,-6.43 -2.69,-8.65c-1.42,-2.22 -3.13,-4.03 -5.13,-5.42c-2,-1.39 -4.19,-2.46 -6.54,-3.2c-2.34,-0.75 -4.69,-1.39 -7.02,-1.91c-2.32,-0.53 -4.46,-1.07 -6.41,-1.63c-1.95,-0.57 -3.55,-1.31 -4.8,-2.23c-1.25,-0.93 -1.96,-2.21 -2.14,-3.86c-0.19,-1.84 0.42,-3.33 1.84,-4.47c1.42,-1.14 3.42,-1.84 6.02,-2.12c2.54,-0.27 4.89,0 7.05,0.79c2.16,0.79 4.37,2.13 6.62,4.01c0,0 7.01,2.67 9.5,-1.78c3.22,-5.72 -0.74,-9.05 -0.74,-9.05c-2.83,-2.51 -6.27,-4.39 -10.3,-5.64c-4.04,-1.23 -8.43,-1.6 -13.19,-1.1c-4.56,0.48 -8.57,1.69 -12.01,3.62c-3.45,1.93 -6.01,4.5 -7.69,7.68c-1.68,3.19 -2.31,6.88 -1.87,11.06c0.35,3.35 1.22,6.11 2.6,8.27c1.38,2.17 3.08,3.87 5.11,5.14c2.02,1.26 4.21,2.28 6.57,3.06c2.35,0.77 4.68,1.4 6.97,1.9c2.29,0.5 4.43,1.05 6.42,1.68c1.99,0.63 3.6,1.45 4.83,2.47c1.23,1.02 1.94,2.42 2.12,4.19c0.21,2.03 -0.49,3.72 -2.11,5.08c-1.62,1.35 -3.98,2.2 -7.09,2.52c-3.49,0.37 -6.61,0.01 -9.38,-1.08c-2.78,-1.08 -5.37,-2.74 -7.78,-4.99c0,0 -6.38,-4.74 -9.77,-0.17c-4.51,6.06 1.09,10.89 1.09,10.89c3.62,3.33 7.5,5.68 11.65,7.03c4.14,1.36 9.01,1.75 14.58,1.16c8.11,-0.85 14.25,-3.34 18.43,-7.47c4.18,-4.12 5.93,-9.38 5.26,-15.78z"></path><path id="路径 9" fill-rule="evenodd" style="fill:#E72264" opacity="1" d="M98.74,0.31335c54.54,0 98.74,44.20995 98.74,98.73995c0,54.5397 -44.21,98.1297 -98.75,98.1297c-0.76,0 -1.54,-0.01 -2.3,-0.03h-28.21v35.03c-0.53,18.33 -15.69,33.02 -34.15,33.02c-18.45,0 -33.46,-14.69 -33.99,-33.02h-0.01v-0.44c-0.01,-0.19 -0.01,-0.37 -0.01,-0.56c0,-0.18 0,-0.35 0,-0.54v-23.85c0,0.01 0,0.01 0,0.01v-9.65v-0.02v-94.89c-0.04,-1.06 -0.06,-2.12 -0.06,-3.1897c0,-54.53 44.21,-98.73995 98.74,-98.73995zM129.13,99.0633c0,-16.78 -13.61,-30.39 -30.39,-30.39c-16.78,0 -30.49,13.61 -30.49,30.39v29.9397h2.81c6.35,0 21.65,0 27.68,0c16.78,0.01 30.39,-13.16 30.39,-29.9397z"></path></g><path id="路径 10" fill-rule="evenodd" style="fill:#1D1D1B" opacity="0.15" d="M33.21 197.171C16.53 197.171 1.06 211.791 0.01 228.181L0.01 230.651C0.01 230.841 0 231.011 0 231.201C0 231.381 0.02 231.561 0.02 231.751L0.02 232.191L0.03 232.191C0.55 250.521 15.57 265.211 34.03 265.211C52.48 265.211 67.49 250.521 68.01 232.191L68.17 232.191L68.17 197.171L33.22 197.171L33.21 197.171Z"></path><g opacity="1"  transform="translate(0.055328369140625 115.58468627929688)  rotate(0)"><g opacity="0.05"  transform="translate(0 0)  rotate(0)"><path id="路径 11" fill-rule="evenodd" style="fill:#000000" opacity="0.5" d="M0 81.57C0 44.47 31.17 13.94 68.17 13.43L68.17 -7.62939e-06C40.67 2.88999 16.32 17.7 0 39.46L0 81.57Z"></path><path id="路径 12" fill-rule="evenodd" style="fill:#000000" opacity="1" d="M28.3553 103.888L68.1853 103.888L68.1853 81.568L34.0653 81.568C16.0453 81.568 1.30534 95.548 0.0553436 113.258C8.08534 107.358 17.8353 103.888 28.3553 103.888Z"></path></g><g opacity="0.05"  transform="translate(0 1.234619140625)  rotate(0)"><path id="路径 13" fill-rule="evenodd" style="fill:#000000" opacity="0.5" d="M68.17 -7.62939e-06C40.44 2.71999 15.97 17.85 0 40.06L0 80.33C0 43.24 31.17 12.71 68.17 12.2L68.17 -7.62939e-06Z"></path><path id="路径 14" fill-rule="evenodd" style="fill:#000000" opacity="1" d="M0.184235 110.603C8.21423 104.333 18.1242 100.633 28.8742 100.633L68.1742 100.633L68.1742 80.3434L34.0542 80.3434L34.0642 80.3334C16.5242 80.3334 2.10423 93.5734 0.184235 110.603Z"></path></g><g opacity="0.05"  transform="translate(0 2.46002197265625)  rotate(0)"><path id="路径 15" fill-rule="evenodd" style="fill:#000000" opacity="0.5" d="M68.17 0C40.19 2.53 15.56 18.03 0 40.74L0 79.1C0 42 31.17 11.47 68.17 10.96L68.17 10.97L68.17 0Z"></path><path id="路径 16" fill-rule="evenodd" style="fill:#000000" opacity="1" d="M0.368454 107.948C8.34845 101.318 18.4285 97.368 29.3885 97.368L68.1685 97.368L68.1685 79.108L34.0585 79.108C17.0185 79.108 2.90845 91.608 0.368454 107.948Z"></path></g><g opacity="0.05"  transform="translate(0 3.69464111328125)  rotate(0)"><path id="路径 17" fill-rule="evenodd" style="fill:#000000" opacity="0.5" d="M68.17 0C39.9 2.34 15.11 18.26 0 41.53L0 77.87C0 40.78 31.17 10.25 68.17 9.74L68.17 0Z"></path><path id="路径 18" fill-rule="evenodd" style="fill:#000000" opacity="1" d="M0.617249 105.323C8.52725 98.3234 18.7472 94.1034 29.9172 94.1034L68.1772 94.1034L68.1772 77.8734L34.0672 77.8734C17.5072 77.8734 3.71725 89.6734 0.617249 105.323Z"></path></g><g opacity="0.05"  transform="translate(0 4.9384765625)  rotate(0)"><path id="路径 19" fill-rule="evenodd" style="fill:#000000" opacity="0.5" d="M68.17 7.62939e-06C39.57 2.12001 14.59 18.54 0 42.41L0 76.63C0 39.54 31.17 9.00001 68.17 8.49001L68.17 7.62939e-06Z"></path><path id="路径 20" fill-rule="evenodd" style="fill:#000000" opacity="1" d="M0.930588 102.67C8.73059 95.3104 19.0806 90.8304 30.4306 90.8304L68.1706 90.8304L68.1706 76.6204L34.0506 76.6204L34.0606 76.6304C18.0006 76.6304 4.55059 87.7304 0.930588 102.67Z"></path></g><g opacity="0.05"  transform="translate(0 6.1823272705078125)  rotate(0)"><path id="路径 21" fill-rule="evenodd" style="fill:#000000" opacity="0.5" d="M68.17 0C39.19 1.9 13.97 18.88 0 43.45L0 75.39C0 38.29 31.17 7.76 68.17 7.25L68.17 0Z"></path><path id="路径 22" fill-rule="evenodd" style="fill:#000000" opacity="1" d="M1.30827 100.016C8.97827 92.3057 19.4183 87.5557 30.9583 87.5557L68.1783 87.5557L68.1783 75.3857L34.0583 75.3857C18.5083 75.3857 5.40827 85.7957 1.30827 100.016Z"></path></g><g opacity="0.05"  transform="translate(0 7.43536376953125)  rotate(0)"><path id="路径 23" fill-rule="evenodd" style="fill:#000000" opacity="0.5" d="M68.17 0C38.75 1.65 13.24 19.31 0 44.68L0 74.13C0 37.04 31.17 6.5 68.17 6L68.17 0Z"></path><path id="路径 24" fill-rule="evenodd" style="fill:#000000" opacity="1" d="M1.74129 97.3627C9.23129 89.3027 19.7813 84.2727 31.4613 84.2727L68.1713 84.2727L68.1713 74.1327L34.0613 74.1327C19.0313 74.1327 6.28129 83.8627 1.74129 97.3627Z"></path></g><g opacity="0.05"  transform="translate(0 8.6976318359375)  rotate(0)"><path id="路径 25" fill-rule="evenodd" style="fill:#000000" opacity="0.5" d="M68.17 7.62939e-06C38.21 1.38001 12.36 19.87 0 46.17L0 72.87C0 35.78 31.17 5.24001 68.17 4.74001L68.17 7.62939e-06Z"></path><path id="路径 26" fill-rule="evenodd" style="fill:#000000" opacity="1" d="M2.23885 94.7204C9.52884 86.3004 20.1388 80.9904 31.9888 80.9904L68.1788 80.9904L68.1788 72.8704L34.0588 72.8704C19.5488 72.8704 7.16885 81.9504 2.23885 94.7204Z"></path></g><g opacity="0.05"  transform="translate(0 9.987533569335938)  rotate(0)"><path id="路径 27" fill-rule="evenodd" style="fill:#000000" opacity="0.5" d="M68.17 0C37.52 1.1 11.22 20.63 0 48.08L0 71.58C0 34.49 31.17 3.95 68.17 3.45L68.17 0Z"></path><path id="路径 28" fill-rule="evenodd" style="fill:#000000" opacity="1" d="M2.8102 92.0605C9.8402 83.2805 20.5302 77.6705 32.5102 77.6705L68.1802 77.6705L68.1802 71.5805L34.0602 71.5805C20.0802 71.5805 8.0602 80.0105 2.8102 92.0605Z"></path></g></g></g></g></g></g></g></g><defs><rect id="path_0" x="0" y="0" width="422" height="329" /><rect id="path_1" x="0" y="0" width="677.2" height="266.2731972789116" /></defs></svg>