<svg xmlns="http://www.w3.org/2000/svg" xmlns:xlink="http://www.w3.org/1999/xlink" fill="none" version="1.1" width="145" height="53" viewBox="0 0 145 53"><defs><clipPath id="master_svg0_1_786"><rect x="36" y="9" width="109" height="44" rx="0"/></clipPath><mask id="master_svg1_1_786/1_09"><g><path d="M36,9L144.862,9L144.862,52.8493L36,52.8493L36,9Z" fill="#FFFFFF" fill-opacity="1"/></g></mask><mask id="master_svg2_1_786/1_14"><g><path d="M36,9L144.862,9L144.862,52.8493L36,52.8493L36,9Z" fill="#FFFFFF" fill-opacity="1"/></g></mask><mask id="master_svg3_1_786/1_17"><g><path d="M36,9L144.862,9L144.862,52.8493L36,52.8493L36,9Z" fill="#FFFFFF" fill-opacity="1"/></g></mask><mask id="master_svg4_1_786/1_20"><g><path d="M36,9L144.862,9L144.862,52.8493L36,52.8493L36,9Z" fill="#FFFFFF" fill-opacity="1"/></g></mask><mask id="master_svg5_1_786/1_23"><g><path d="M36,9L144.862,9L144.862,52.8493L36,52.8493L36,9Z" fill="#FFFFFF" fill-opacity="1"/></g></mask><mask id="master_svg6_1_786/1_26"><g><path d="M36,9L144.862,9L144.862,52.8493L36,52.8493L36,9Z" fill="#FFFFFF" fill-opacity="1"/></g></mask><mask id="master_svg7_1_786/1_29"><g><path d="M36,9L144.862,9L144.862,52.8493L36,52.8493L36,9Z" fill="#FFFFFF" fill-opacity="1"/></g></mask><mask id="master_svg8_1_786/1_32"><g><path d="M36,9L144.862,9L144.862,52.8493L36,52.8493L36,9Z" fill="#FFFFFF" fill-opacity="1"/></g></mask><mask id="master_svg9_1_786/1_35"><g><path d="M36,9L144.862,9L144.862,52.8493L36,52.8493L36,9Z" fill="#FFFFFF" fill-opacity="1"/></g></mask><mask id="master_svga_1_786/1_42"><g><path d="M36,9L144.862,9L144.862,52.8493L36,52.8493L36,9Z" fill="#FFFFFF" fill-opacity="1"/></g></mask><mask id="master_svgb_1_786/1_45"><g><path d="M36,9L144.862,9L144.862,52.8493L36,52.8493L36,9Z" fill="#FFFFFF" fill-opacity="1"/></g></mask><mask id="master_svgc_1_786/1_49"><g><path d="M36,9L144.862,9L144.862,52.8493L36,52.8493L36,9Z" fill="#FFFFFF" fill-opacity="1"/></g></mask><mask id="master_svgd_1_786/1_52"><g><path d="M36,9L144.862,9L144.862,52.8493L36,52.8493L36,9Z" fill="#FFFFFF" fill-opacity="1"/></g></mask><mask id="master_svge_1_786/1_56"><g><path d="M36,9L144.862,9L144.862,52.8493L36,52.8493L36,9Z" fill="#FFFFFF" fill-opacity="1"/></g></mask><mask id="master_svgf_1_786/1_59"><g><path d="M36,9L144.862,9L144.862,52.8493L36,52.8493L36,9Z" fill="#FFFFFF" fill-opacity="1"/></g></mask><mask id="master_svgg_1_786/1_63"><g><path d="M36,9L144.862,9L144.862,52.8493L36,52.8493L36,9Z" fill="#FFFFFF" fill-opacity="1"/></g></mask><mask id="master_svgh_1_786/1_66"><g><path d="M36,9L144.862,9L144.862,52.8493L36,52.8493L36,9Z" fill="#FFFFFF" fill-opacity="1"/></g></mask><mask id="master_svgi_1_786/1_70"><g><path d="M36,9L144.862,9L144.862,52.8493L36,52.8493L36,9Z" fill="#FFFFFF" fill-opacity="1"/></g></mask><mask id="master_svgj_1_786/1_73"><g><path d="M36,9L144.862,9L144.862,52.8493L36,52.8493L36,9Z" fill="#FFFFFF" fill-opacity="1"/></g></mask><mask id="master_svgk_1_786/1_77"><g><path d="M36,9L144.862,9L144.862,52.8493L36,52.8493L36,9Z" fill="#FFFFFF" fill-opacity="1"/></g></mask><mask id="master_svgl_1_786/1_80"><g><path d="M36,9L144.862,9L144.862,52.8493L36,52.8493L36,9Z" fill="#FFFFFF" fill-opacity="1"/></g></mask><mask id="master_svgm_1_786/1_84"><g><path d="M36,9L144.862,9L144.862,52.8493L36,52.8493L36,9Z" fill="#FFFFFF" fill-opacity="1"/></g></mask><mask id="master_svgn_1_786/1_87"><g><path d="M36,9L144.862,9L144.862,52.8493L36,52.8493L36,9Z" fill="#FFFFFF" fill-opacity="1"/></g></mask><mask id="master_svgo_1_786/1_91"><g><path d="M36,9L144.862,9L144.862,52.8493L36,52.8493L36,9Z" fill="#FFFFFF" fill-opacity="1"/></g></mask><mask id="master_svgp_1_786/1_94"><g><path d="M36,9L144.862,9L144.862,52.8493L36,52.8493L36,9Z" fill="#FFFFFF" fill-opacity="1"/></g></mask><mask id="master_svgq_1_786/1_000"><g><path d="M36,9L144.862,9L144.862,52.8493L36,52.8493L36,9Z" fill="#FFFFFF" fill-opacity="1"/></g></mask><mask id="master_svgr_1_786/1_003"><g><path d="M36,9L144.862,9L144.862,52.8493L36,52.8493L36,9Z" fill="#FFFFFF" fill-opacity="1"/></g></mask></defs><g><g transform="matrix(1,9.002274481417771e-9,-9.002274481417771e-9,1,0,0)"><g><path d="M47.9972,0L59.9966,0L29.9983,51.9529L0,0L22.9487,0L29.9983,12.0471L36.8979,0L47.9972,0Z" fill="#41B883" fill-opacity="1"/></g><g><path d="M0,0L29.9983,51.9529L59.9966,0L47.9972,0L29.9983,31.1718L11.8493,0L0,0Z" fill="#41B883" fill-opacity="1"/></g><g><path d="M11.84930419921875,0L29.99830419921875,31.3224L47.99720419921875,0L36.89790419921875,0L29.99830419921875,12.0471L22.94870419921875,0L11.84930419921875,0Z" fill="#35495E" fill-opacity="1"/></g></g><g><g clip-path="url(#master_svg0_1_786)"><g><g><g mask="url(#master_svg1_1_786/1_09)"><g><path d="M81.108155859375,52.849266699218745L81.108155859375,22.70086669921875L72.328875859375,22.70086669921875C72.299215859375,22.70086669921875,72.268075859375,22.70086669921875,72.235445859375,22.70238951921875C70.657545859375,22.75872209921875,69.389584459375,24.09090669921875,69.374755859375,25.71083669921875L69.374755859375,25.73671669921875L69.374755859375,49.863666699218754C69.374755859375,49.91386669921875,69.377722479375,49.970266699218755,69.382171279375,50.03266669921875C69.515639859375,51.585566699218745,70.782115859375,52.77616669921875,72.299215859375,52.84316669921875C72.362985859375,52.84616669921875,72.423785859375,52.84766669921875,72.480145859375,52.84766669921875L81.108155859375,52.84766669921875L81.108155859375,52.849266699218745Z" fill="#E72264" fill-opacity="1"/></g></g><g mask="url(#master_svg2_1_786/1_14)"><g><path d="M117.29917560546875,52.83405361328125C118.93489560546875,52.70775361328125,120.22959560546875,51.32525361328125,120.24139560546875,49.63985361328125C120.24139560546875,49.62925361328125,120.24139560546875,49.61855361328125,120.24139560546875,49.60795361328125L120.24139560546875,25.77179361328125C120.24139560546875,25.76266361328125,120.24139560546875,25.75200361328125,120.24139560546875,25.74287361328125C120.23399560546875,24.07726361328125,118.91419560546875,22.71920111328125,117.29175560546875,22.70245361328125C117.27989560546875,22.70245361328125,117.26803560546875,22.70245361328125,117.25616560546875,22.70245361328125L108.50799560546875,22.70245361328125L108.50799560546875,52.850853613281245L116.93287560546875,52.850853613281245C117.04706560546875,52.850853613281245,117.17015560546875,52.84475361328125,117.29917560546875,52.83565361328125L117.29917560546875,52.83405361328125Z" fill="#E72264" fill-opacity="1"/></g></g><g mask="url(#master_svg3_1_786/1_17)"><g><path d="M79.4620114765625,22.70245361328125L88.6565884765625,22.70245361328125C89.55818847656249,22.70245361328125,90.8335884765625,23.45151961328125,91.5068884765625,24.37719361328125L111.0037884765625,51.173053613281255C111.6770884765625,52.09875361328125,111.4916884765625,52.84775361328125,110.5914884765625,52.84775361328125L101.3969884765625,52.84775361328125C100.49528847656251,52.84775361328125,99.2198884765625,52.09875361328125,98.54668847656251,51.173053613281255L79.0482594765625,24.37719361328125C78.3749794765625,23.45304161328125,78.5603539765625,22.70245361328125,79.4605314765625,22.70245361328125L79.4620114765625,22.70245361328125Z" fill="#E72264" fill-opacity="1"/></g></g><g mask="url(#master_svg4_1_786/1_20)"><g><path d="M109.86336494140625,22.70245361328125L100.66886494140626,22.70245361328125C99.76716494140625,22.70245361328125,98.49186494140625,23.45151961328125,97.81856494140625,24.37719361328125L78.32163594140626,51.173053613281255C77.64835594140625,52.09875361328125,77.83373044140625,52.84775361328125,78.73390794140624,52.84775361328125L87.92846494140625,52.84775361328125C88.83016494140625,52.84775361328125,90.10546494140625,52.09875361328125,90.77876494140625,51.173053613281255L110.27566494140625,24.37719361328125C110.94896494140625,23.45304161328125,110.76356494140626,22.70245361328125,109.86336494140625,22.70245361328125Z" fill="#E72264" fill-opacity="1"/></g></g><g mask="url(#master_svg5_1_786/1_23)"><g><path d="M120.09607841796876,14.78547Q120.09607841796876,14.927489999999999,120.08937841796875,15.06935Q120.08257841796875,15.2112,120.06897841796875,15.352540000000001Q120.05547841796874,15.49388,120.03517841796875,15.63437Q120.01487841796875,15.77486,119.98787841796874,15.914159999999999Q119.96087841796876,16.053449999999998,119.92727841796875,16.19122Q119.89357841796875,16.32899,119.85347841796874,16.4649Q119.81327841796875,16.60081,119.76667841796875,16.73453Q119.72007841796875,16.86825,119.66717841796876,16.99947Q119.61417841796874,17.130679999999998,119.55507841796874,17.25907Q119.49587841796875,17.38746,119.43067841796875,17.51272Q119.36547841796875,17.63797,119.29437841796874,17.759790000000002Q119.22327841796874,17.881610000000002,119.14637841796875,17.9997Q119.06957841796876,18.11779,118.98707841796875,18.231859999999998Q118.90467841796875,18.34594,118.81695841796875,18.455730000000003Q118.72918841796874,18.56552,118.63628841796876,18.670749999999998Q118.54338841796874,18.77598,118.44555841796875,18.87641Q118.34773841796876,18.97684,118.24523841796875,19.072200000000002Q118.14273841796876,19.1676,118.03579841796875,19.2577Q117.92885841796875,19.3478,117.81773841796876,19.4324Q117.70661841796876,19.517,117.59159841796875,19.5959Q117.47656841796875,19.674799999999998,117.35790841796874,19.747799999999998Q117.23925841796876,19.8208,117.11724841796875,19.8878Q116.99523841796875,19.954700000000003,116.87018841796875,20.0155Q116.74512841796874,20.0762,116.61731841796875,20.130499999999998Q116.48950841796875,20.1849,116.35924841796876,20.2327Q116.22899841796875,20.2806,116.09661841796876,20.3218Q115.96422841796876,20.363,115.83003841796875,20.3975Q115.69583841796874,20.4321,115.56015841796875,20.4598Q115.42447841796874,20.4875,115.28762841796875,20.5083Q115.15078841796876,20.5292,115.01311841796876,20.543100000000003Q114.87543841796875,20.557000000000002,114.73726841796875,20.564Q114.59908841796874,20.5709,114.46074841796874,20.5709Q114.32240841796875,20.5709,114.18423841796874,20.564Q114.04606841796875,20.557000000000002,113.90838841796875,20.543100000000003Q113.77071841796875,20.5292,113.63386841796876,20.5083Q113.49702841796875,20.4875,113.36134841796876,20.4598Q113.22565841796875,20.4321,113.09146841796876,20.3975Q112.95726841796875,20.363,112.82488841796875,20.3218Q112.69250841796875,20.2806,112.56224841796875,20.2327Q112.43199841796876,20.1849,112.30418841796875,20.130499999999998Q112.17637841796875,20.0762,112.05131841796874,20.0155Q111.92625841796875,19.954700000000003,111.80425841796875,19.8878Q111.68224841796875,19.8208,111.56358841796875,19.747799999999998Q111.44492841796875,19.674799999999998,111.32990841796875,19.5959Q111.21487841796875,19.517,111.10376841796875,19.4324Q110.99264841796875,19.3478,110.88570841796874,19.2577Q110.77876841796875,19.1676,110.67626841796876,19.072200000000002Q110.57375841796875,18.97684,110.47593841796875,18.87641Q110.37811841796875,18.77598,110.28521841796875,18.670749999999998Q110.19230841796875,18.56551,110.10454841796874,18.455730000000003Q110.01678841796875,18.34594,109.93437841796874,18.231859999999998Q109.85196841796875,18.11779,109.77511041796875,17.9997Q109.69825241796875,17.881610000000002,109.62713041796874,17.759790000000002Q109.55600941796875,17.63797,109.49079641796875,17.51272Q109.42558241796876,17.38746,109.36643441796875,17.25907Q109.30728641796875,17.130679999999998,109.25434541796875,16.99947Q109.20140541796874,16.86825,109.15479941796875,16.73453Q109.10819341796875,16.60081,109.06803541796874,16.4649Q109.02787741796875,16.32899,108.99426341796875,16.19122Q108.96064941796875,16.053449999999998,108.93366041796875,15.914159999999999Q108.90667161796875,15.77486,108.88637281796875,15.63437Q108.86607401796876,15.49388,108.85251431796875,15.352540000000001Q108.83895451796874,15.2112,108.83216646796875,15.06935Q108.82537841796875,14.927489999999999,108.82537841796875,14.78547Q108.82537841796875,14.64344,108.83216646796875,14.50159Q108.83895451796874,14.359729999999999,108.85251431796875,14.21839Q108.86607401796876,14.07705,108.88637281796875,13.93656Q108.90667161796875,13.79607,108.93366041796875,13.656780000000001Q108.96064941796875,13.517479999999999,108.99426341796875,13.37971Q109.02787741796875,13.24194,109.06803541796874,13.10603Q109.10819341796875,12.97012,109.15479941796875,12.8364Q109.20140541796874,12.70268,109.25434541796875,12.57146Q109.30728641796875,12.440249999999999,109.36643441796875,12.31186Q109.42558241796876,12.18347,109.49079641796875,12.05822Q109.55600941796875,11.93296,109.62713141796876,11.81114Q109.69825241796875,11.68932,109.77511041796875,11.57123Q109.85196841796875,11.45314,109.93437841796874,11.33907Q110.01678841796875,11.22499,110.10454841796874,11.11521Q110.19230841796875,11.00542,110.28521841796875,10.90018Q110.37811841796875,10.79495,110.47593841796875,10.69452Q110.57375841796875,10.594100000000001,110.67626841796876,10.49872Q110.77876841796875,10.40334,110.88570841796874,10.31324Q110.99264841796875,10.22314,111.10376841796875,10.13854Q111.21487841796875,10.05393,111.32990841796875,9.975027Q111.44492841796875,9.896122,111.56358841796875,9.823106Q111.68224841796875,9.750091,111.80425841796875,9.683140999999999Q111.92625841796875,9.61619,112.05131841796874,9.555467Q112.17637841796875,9.494743,112.30418841796875,9.440392Q112.43199841796876,9.386042,112.56224841796875,9.338195Q112.69250841796875,9.290348,112.82488841796875,9.24912Q112.95727841796875,9.207892,113.09146841796876,9.173383Q113.22565841796875,9.138874,113.36134841796876,9.111166Q113.49702841796875,9.0834584,113.63386841796876,9.0626189Q113.77071841796875,9.0417795,113.90838841796875,9.0278586Q114.04606841796875,9.0139377,114.18423841796874,9.00696885Q114.32240841796875,9,114.46074841796874,9Q114.59908841796874,9,114.73726841796875,9.00696885Q114.87543841796875,9.0139377,115.01311841796876,9.0278586Q115.15078841796876,9.0417795,115.28762841796875,9.0626189Q115.42447841796874,9.0834584,115.56015841796875,9.111166Q115.69583841796874,9.138874,115.83003841796875,9.173383Q115.96422841796876,9.207892,116.09661841796876,9.24912Q116.22899841796875,9.290348,116.35924841796876,9.338195Q116.48950841796875,9.386042,116.61731841796875,9.440392Q116.74512841796874,9.494743,116.87018841796875,9.555467Q116.99523841796875,9.61619,117.11724841796875,9.683140999999999Q117.23924841796875,9.750091,117.35790841796874,9.823106Q117.47656841796875,9.896122,117.59159841796875,9.975027Q117.70661841796876,10.05393,117.81773841796876,10.13854Q117.92885841796875,10.22314,118.03579841796875,10.31324Q118.14273841796876,10.40334,118.24523841796875,10.49872Q118.34773841796876,10.594100000000001,118.44555841796875,10.69452Q118.54338841796874,10.79495,118.63628841796876,10.90018Q118.72918841796874,11.00542,118.81695841796875,11.11521Q118.90467841796875,11.22499,118.98707841796875,11.33907Q119.06957841796876,11.45314,119.14637841796875,11.57123Q119.22327841796874,11.68932,119.29437841796874,11.81114Q119.36547841796875,11.93296,119.43067841796875,12.05822Q119.49587841796875,12.18347,119.55507841796874,12.31186Q119.61417841796874,12.440249999999999,119.66717841796876,12.57146Q119.72007841796875,12.70268,119.76667841796875,12.8364Q119.81327841796875,12.97012,119.85347841796874,13.10603Q119.89357841796875,13.24194,119.92727841796875,13.37971Q119.96087841796876,13.517479999999999,119.98787841796874,13.656780000000001Q120.01487841796875,13.79607,120.03517841796875,13.93656Q120.05547841796874,14.07705,120.06897841796875,14.21839Q120.08257841796875,14.359729999999999,120.08937841796875,14.50159Q120.09607841796876,14.64344,120.09607841796876,14.78547Z" fill="#E72264" fill-opacity="1"/></g></g><g mask="url(#master_svg6_1_786/1_26)"><g><path d="M80.94501640625,14.78547Q80.94501640625,14.927489999999999,80.93831640625,15.06935Q80.93151640625,15.2112,80.91791640625,15.352540000000001Q80.90441640625,15.49388,80.88411640625,15.63437Q80.86381640625,15.77486,80.83681640625,15.914159999999999Q80.80981640625001,16.053449999999998,80.77621640625,16.19122Q80.74251640625,16.32899,80.70241640625,16.4649Q80.66221640625,16.60081,80.61561640625,16.73453Q80.56901640625,16.86825,80.51611640625,16.99947Q80.46311640625,17.130679999999998,80.40401640625,17.25907Q80.34481640625,17.38746,80.27961640625,17.51272Q80.21441640625,17.63797,80.14331640625,17.759790000000002Q80.07221640624999,17.881610000000002,79.99531640625,17.9997Q79.91851640625,18.11779,79.83601640625,18.231859999999998Q79.75361640625,18.34594,79.66589640625,18.455730000000003Q79.57812640625,18.56552,79.48522640625,18.670749999999998Q79.39232640624999,18.77598,79.29449640625,18.87641Q79.19667640625,18.97684,79.09417640625,19.072200000000002Q78.99167640625001,19.1676,78.88473640625,19.2577Q78.77779640625,19.3478,78.66667640625,19.4324Q78.55555640625,19.517,78.44053640625,19.5959Q78.32550640625,19.674799999999998,78.20684640625,19.747799999999998Q78.08819640625,19.8208,77.96618640625,19.8878Q77.84417640625,19.954700000000003,77.71912640625,20.0155Q77.59406640625,20.0762,77.46625640625,20.130499999999998Q77.33844640625,20.1849,77.20818640625001,20.2327Q77.07793640625,20.2806,76.94555640625,20.3218Q76.81316640625,20.363,76.67897640625,20.3975Q76.54477640625,20.4321,76.40909640625,20.4598Q76.27341640624999,20.4875,76.13656640625,20.5083Q75.99972640625,20.5292,75.86205640625,20.543100000000003Q75.72437640625,20.557000000000002,75.58620640625,20.564Q75.44802640625,20.5709,75.30968640625,20.5709Q75.17134640625,20.5709,75.03317640624999,20.564Q74.89500640625,20.557000000000002,74.75732640625,20.543100000000003Q74.61965640625,20.5292,74.48280640625,20.5083Q74.34596640625,20.4875,74.21028640625,20.4598Q74.07459640625,20.4321,73.94040640625,20.3975Q73.80620640625,20.363,73.67382640625,20.3218Q73.54144640625,20.2806,73.41118640625,20.2327Q73.28093640625,20.1849,73.15312640625,20.130499999999998Q73.02531640625,20.0762,72.90025640625,20.0155Q72.77519640625,19.954700000000003,72.65319640625,19.8878Q72.53118640625,19.8208,72.41252640625,19.747799999999998Q72.29386640625,19.674799999999998,72.17884640625,19.5959Q72.06381640625,19.517,71.95270640625,19.4324Q71.84158640625,19.3478,71.73464640625,19.2577Q71.62770640625,19.1676,71.52520640625,19.072200000000002Q71.42269640625,18.97684,71.32487640625,18.87641Q71.22705640625,18.77598,71.13415640625,18.670749999999998Q71.04124640625,18.56551,70.95348640625,18.455730000000003Q70.86572640625,18.34594,70.78331640625,18.231859999999998Q70.70090640625,18.11779,70.62404840625,17.9997Q70.54719040625,17.881610000000002,70.47606840625,17.759790000000002Q70.40494740625,17.63797,70.33973440625,17.51272Q70.27452040625,17.38746,70.21537240625,17.25907Q70.15622440625,17.130679999999998,70.10328340625,16.99947Q70.05034340625,16.86825,70.00373740625,16.73453Q69.95713140625,16.60081,69.91697340625,16.4649Q69.87681540625,16.32899,69.84320140625,16.19122Q69.80958740625,16.053449999999998,69.78259840625,15.914159999999999Q69.75560960625,15.77486,69.73531080625,15.63437Q69.71501200625,15.49388,69.70145230625,15.352540000000001Q69.68789250625,15.2112,69.68110445625,15.06935Q69.67431640625,14.927489999999999,69.67431640625,14.78547Q69.67431640625,14.64344,69.68110445625,14.50159Q69.68789250625,14.359729999999999,69.70145230625,14.21839Q69.71501200625,14.07705,69.73531080625,13.93656Q69.75560960625,13.79607,69.78259840625,13.656780000000001Q69.80958740625,13.517479999999999,69.84320140625,13.37971Q69.87681540625,13.24194,69.91697340625,13.10603Q69.95713140625,12.97012,70.00373740625,12.8364Q70.05034340625,12.70268,70.10328340625,12.57146Q70.15622440625,12.440249999999999,70.21537240625,12.31186Q70.27452040625,12.18347,70.33973440625,12.05822Q70.40494740625,11.93296,70.47606940625,11.81114Q70.54719040625,11.68932,70.62404840625,11.57123Q70.70090640625,11.45314,70.78331640625,11.33907Q70.86572640625,11.22499,70.95348640625,11.11521Q71.04124640625,11.00542,71.13415640625,10.90018Q71.22705640625,10.79495,71.32487640625,10.69452Q71.42269640625,10.594100000000001,71.52520640625,10.49872Q71.62770640625,10.40334,71.73464640625,10.31324Q71.84158640625,10.22314,71.95270640625,10.13854Q72.06381640625,10.05393,72.17884640625,9.975027Q72.29386640625,9.896122,72.41252640625,9.823106Q72.53118640625,9.750091,72.65319640625,9.683140999999999Q72.77519640625,9.61619,72.90025640625,9.555467Q73.02531640625,9.494743,73.15312640625,9.440392Q73.28093640625,9.386042,73.41118640625,9.338195Q73.54144640625,9.290348,73.67382640625,9.24912Q73.80621640625,9.207892,73.94040640625,9.173383Q74.07459640625,9.138874,74.21028640625,9.111166Q74.34596640625,9.0834584,74.48280640625,9.0626189Q74.61965640625,9.0417795,74.75732640625,9.0278586Q74.89500640625,9.0139377,75.03317640624999,9.00696885Q75.17134640625,9,75.30968640625,9Q75.44802640625,9,75.58620640625,9.00696885Q75.72437640625,9.0139377,75.86205640625,9.0278586Q75.99972640625,9.0417795,76.13656640625,9.0626189Q76.27341640624999,9.0834584,76.40909640625,9.111166Q76.54477640625,9.138874,76.67897640625,9.173383Q76.81316640625,9.207892,76.94555640625,9.24912Q77.07793640625,9.290348,77.20818640625001,9.338195Q77.33844640625,9.386042,77.46625640625,9.440392Q77.59406640625,9.494743,77.71912640625,9.555467Q77.84417640625,9.61619,77.96618640625,9.683140999999999Q78.08818640625,9.750091,78.20684640625,9.823106Q78.32550640625,9.896122,78.44053640625,9.975027Q78.55555640625,10.05393,78.66667640625,10.13854Q78.77779640625,10.22314,78.88473640625,10.31324Q78.99167640625001,10.40334,79.09417640625,10.49872Q79.19667640625,10.594100000000001,79.29449640625,10.69452Q79.39232640624999,10.79495,79.48522640625,10.90018Q79.57812640625,11.00542,79.66589640625,11.11521Q79.75361640625,11.22499,79.83601640625,11.33907Q79.91851640625,11.45314,79.99531640625,11.57123Q80.07221640624999,11.68932,80.14331640625,11.81114Q80.21441640625,11.93296,80.27961640625,12.05822Q80.34481640625,12.18347,80.40401640625,12.31186Q80.46311640625,12.440249999999999,80.51611640625,12.57146Q80.56901640625,12.70268,80.61561640625,12.8364Q80.66221640625,12.97012,80.70241640625,13.10603Q80.74251640625,13.24194,80.77621640625,13.37971Q80.80981640625001,13.517479999999999,80.83681640625,13.656780000000001Q80.86381640625,13.79607,80.88411640625,13.93656Q80.90441640625,14.07705,80.91791640625,14.21839Q80.93151640625,14.359729999999999,80.93831640625,14.50159Q80.94501640625,14.64344,80.94501640625,14.78547Z" fill="#E72264" fill-opacity="1"/></g></g><g mask="url(#master_svg7_1_786/1_29)"><g><path d="M139.078328515625,9L130.180398515625,9C126.986038515625,9,124.396728515625,11.65827,124.396728515625,14.937719999999999L124.396728515625,24.072699999999998C124.396728515625,27.3521,126.986038515625,30.0104,130.180398515625,30.0104L139.078328515625,30.0104C142.272728515625,30.0104,144.862028515625,27.3521,144.862028515625,24.072699999999998L144.862028515625,14.937719999999999C144.862028515625,11.65827,142.272728515625,9,139.078328515625,9ZM133.201258515625,14.98948L133.201258515625,21.1556C133.201258515625,21.986800000000002,133.039608515625,22.7085,132.716318515625,23.319000000000003C132.393028515625,23.9296,131.931818515625,24.403,131.332678515625,24.7395C130.733548515625,25.076,130.023198515625,25.245,129.203108515625,25.245C128.506098515625,25.245,127.903998515625,25.1156,127.395338515625,24.8583C126.886668515625,24.601,126.459568515625,24.240099999999998,126.11106851562499,23.7773Q125.139709515625,22.7009,126.029508515625,21.941200000000002Q126.938578515625,21.1647,127.726048515625,22.1817C127.909938515625,22.4451,128.127948515625,22.643,128.380048515625,22.774C128.630668515625,22.906399999999998,128.915408515625,22.971899999999998,129.234248515625,22.971899999999998C129.530848515625,22.971899999999998,129.793338515625,22.9095,130.018748515625,22.783099999999997C130.244158515625,22.6567,130.423608515625,22.468,130.557078515625,22.2152C130.690548515625,21.9625,130.757278515625,21.651899999999998,130.757278515625,21.2835L130.757278515625,14.991Q130.733558515625,13.72124,131.961468515625,13.72124Q133.189378515625,13.72124,133.20273851562501,14.991L133.201258515625,14.98948ZM141.937528515625,23.9783C141.265728515625,24.6603,140.276628515625,25.0714,138.971628515625,25.2115C138.074328515625,25.3089,137.291328515625,25.245,136.624028515625,25.0212C135.956628515625,24.7974,135.332328515625,24.409100000000002,134.749528515625,23.858Q133.847828515625,23.060200000000002,134.574528515625,22.0584Q135.120228515625,21.3048,136.146428515625,22.0873C136.535028515625,22.4588,136.951728515625,22.7329,137.398128515625,22.9125C137.844528515625,23.0922,138.347228515625,23.151600000000002,138.909328515625,23.0907C139.409028515625,23.037399999999998,139.788728515625,22.8973,140.049728515625,22.6735C140.310728515625,22.4497,140.423428515625,22.1695,140.389328515625,21.834600000000002C140.359628515625,21.542299999999997,140.245428515625,21.3109,140.048228515625,21.1419C139.851028515625,20.9729,139.591428515625,20.837400000000002,139.271128515625,20.733800000000002C138.950828515625,20.6303,138.606728515625,20.539,138.237528515625,20.456699999999998C137.868228515625,20.374499999999998,137.494528515625,20.2695,137.114828515625,20.1416C136.735228515625,20.0137,136.383728515625,19.8447,136.057528515625,19.6361C135.731228515625,19.427500000000002,135.458328515625,19.145899999999997,135.235928515625,18.7881C135.013428515625,18.43031,134.874028515625,17.97509,134.817728515625,17.4209C134.746528515625,16.729689999999998,134.847328515625,16.12069,135.117328515625,15.593910000000001C135.388628515625,15.067129999999999,135.800928515625,14.64388,136.355528515625,14.32415C136.910228515625,14.00443,137.555328515625,13.80498,138.289428515625,13.72581C139.054628515625,13.6436,139.762028515625,13.7045,140.411528515625,13.90851C141.061128515625,14.114049999999999,141.614228515625,14.42464,142.069528515625,14.84028Q142.707228515625,15.3899,142.189628515625,16.33536Q141.787728515625,17.070729999999998,140.659228515625,16.6292C140.297328515625,16.31862,139.941428515625,16.09785,139.594428515625,15.96692C139.245928515625,15.835989999999999,138.867728515625,15.791830000000001,138.459928515625,15.835989999999999C138.041728515625,15.88166,137.718428515625,15.99889,137.490028515625,16.18616C137.261728515625,16.37495,137.163828515625,16.62159,137.194928515625,16.92457C137.223128515625,17.19709,137.337328515625,17.408720000000002,137.539028515625,17.56249C137.740728515625,17.71474,137.997228515625,17.83806,138.311628515625,17.93093C138.624528515625,18.0238,138.970128515625,18.11363,139.343828515625,18.200409999999998C139.719028515625,18.2872,140.095728515625,18.39225,140.473828515625,18.51557C140.852028515625,18.63889,141.203528515625,18.8155,141.525328515625,19.0454C141.847128515625,19.2753,142.122928515625,19.573700000000002,142.351328515625,19.9406C142.579728515625,20.307499999999997,142.723528515625,20.784100000000002,142.784328515625,21.3702C142.892628515625,22.4284,142.610828515625,23.2977,141.937528515625,23.9783Z" fill="#E72264" fill-opacity="1"/></g></g><g mask="url(#master_svg8_1_786/1_32)"><g><path d="M51.8932,9.051788330078125C43.1154,9.051788330078125,36,16.356698330078125,36,25.368288330078126C36,25.544888330078123,36.00296599,25.719988330078124,36.00889796,25.895088330078124L36.00889796,41.57518833007813L36.00889796,41.578288330078124L36.00889796,43.172288330078125Q36.00889796,43.172288330078125,36.010381,43.170788330078125L36.010381,47.11248833007812C36.010381,47.142988330078126,36.00889796,47.171888330078126,36.00889796,47.20238833007812C36.00889796,47.23278833007812,36.010381,47.263288330078126,36.0118639,47.293688330078126L36.0118639,47.36678833007812L36.0133469,47.36678833007812C36.0978775,50.39498833007813,38.51367,52.823388330078124,41.48411,52.823388330078124C44.45454,52.823388330078124,46.8955,50.39498833007813,46.9801,47.36678833007812L46.9801,41.578288330078124L51.521,41.578288330078124C51.6441,41.581288330078124,51.7687,41.58288833007813,51.8918,41.58288833007813C60.6696,41.58288833007813,67.785,34.37998833007812,67.785,25.368288330078126C67.785,16.356698330078125,60.671099999999996,9.051787150358125,51.8932,9.051788330078125ZM51.8932,30.316388330078127C50.9219,30.316388330078127,48.4601,30.316388330078127,47.4383,30.316388330078127L46.9845,30.316388330078127L46.9845,25.369788330078126C46.9845,22.597388330078125,49.1927,20.348688330078126,51.8932,20.348688330078126C54.5938,20.348688330078126,56.784099999999995,22.597388330078125,56.784099999999995,25.369788330078126C56.784099999999995,28.142288330078124,54.5938,30.317888330078127,51.8932,30.317888330078127L51.8932,30.316388330078127Z" fill="#E72264" fill-opacity="1"/></g></g></g><g mask="url(#master_svg9_1_786/1_35)"><g style="opacity:0.15000000596046448;"><path d="M41.34619,41.58135986328125L46.9727,41.58135986328125L46.9727,47.36834986328125L46.9475,47.36834986328125C46.862899999999996,50.39657986328125,44.44713,52.82495986328125,41.47669,52.82495986328125C38.50626,52.82495986328125,36.0889795,50.39657986328125,36.00444898,47.36834986328125L36.00296599,47.36834986328125L36.00296599,47.29526986328125C36.00296599,47.26481986328125,36,47.23436986328125,36,47.20391986328125C36,47.17346986328125,36.00148299,47.14454986328125,36.00148299,47.114099863281254L36.00148299,46.70606986328125C36.170544,43.99755986328125,38.66049,41.58136218642125,41.34471,41.58136218642125L41.34619,41.58135986328125Z" fill="#1D1D1B" fill-opacity="1"/></g></g><g><g style="opacity:0.05000000074505806;"><g mask="url(#master_svga_1_786/1_42)"><g style="opacity:0.5;"><path d="M36.009033203125,34.620500410156254L36.009033203125,41.57827041015625C36.009033203125,35.44874041015625,41.026003203125,30.40320041015625,46.981733203125,30.31946041015625L46.981733203125,28.09967041015625C42.554973203125,28.57773241015625,38.635423203125,31.02438041015625,36.009033203125,34.620500410156254Z" fill="#000000" fill-opacity="1"/></g></g><g mask="url(#master_svgb_1_786/1_45)"><g><path d="M36.01776123046875,46.81415810546875C37.31093123046875,45.839758105468746,38.87993123046875,45.26577810546875,40.57351123046875,45.26577810546875L46.982961230468746,45.26577810546875L46.982961230468746,41.57830810546875L41.49149123046875,41.57830810546875C38.59075123046875,41.57830810546875,36.21944923046875,43.88792810546875,36.01776123046875,46.81415810546875Z" fill="#000000" fill-opacity="1"/></g></g></g><g style="opacity:0.05000000074505806;"><g mask="url(#master_svgc_1_786/1_49)"><g style="opacity:0.5;"><path d="M46.981733203125,30.31942990234375L46.981733203125,28.30364990234375C42.517893203125,28.75278590234375,38.579063203125,31.25271990234375,36.009033203125,34.92343990234375L36.009033203125,41.57824990234375C36.009033203125,35.44869990234375,41.026003203125,30.40316990234375,46.981733203125,30.31942990234375Z" fill="#000000" fill-opacity="1"/></g></g><g mask="url(#master_svgd_1_786/1_52)"><g><path d="M41.4914121484375,41.57830810546875C38.6692821484375,41.57830810546875,36.3469141484375,43.76612810546875,36.0384521484375,46.57968810546875C37.3301421484375,45.54439810546875,38.925842148437496,44.93235810546875,40.6564921484375,44.93235810546875L46.9814521484375,44.93235810546875L46.9814521484375,41.57982743546875L41.489932148437504,41.57982743546875L41.4914121484375,41.57830810546875Z" fill="#000000" fill-opacity="1"/></g></g></g><g style="opacity:0.05000000074505806;"><g mask="url(#master_svge_1_786/1_56)"><g style="opacity:0.5;"><path d="M46.981733203125,30.31945455078125L46.981733203125,28.50616455078125C42.477853203125,28.92484955078125,38.513813203125,31.48568455078125,36.009033203125,35.23862455078125L36.009033203125,41.57676455078125C36.009033203125,35.44720455078125,41.026003203125,30.40166455078125,46.981733203125,30.31793455078125L46.981733203125,30.31945455078125Z" fill="#000000" fill-opacity="1"/></g></g><g mask="url(#master_svgf_1_786/1_59)"><g><path d="M41.49148626953125,41.57830810546875C38.74794626953125,41.57830810546875,36.47748226953125,43.64432810546875,36.06817626953125,46.34370810546875C37.35244626953125,45.24903810546875,38.97484626953125,44.59588810546875,40.73960626953125,44.59588810546875L46.981576269531246,44.59588810546875L46.981576269531246,41.57831042860875L41.49000626953125,41.57831042860875L41.49148626953125,41.57830810546875Z" fill="#000000" fill-opacity="1"/></g></g></g><g style="opacity:0.05000000074505806;"><g mask="url(#master_svgg_1_786/1_63)"><g style="opacity:0.5;"><path d="M46.981733203125,30.31941404296875L46.981733203125,28.71014404296875C42.431883203125,29.09685604296875,38.441153203125,31.72772404296875,36.009033203125,35.572014042968746L36.009033203125,41.57824404296875C36.009033203125,35.448694042968754,41.026003203125,30.40315404296875,46.981733203125,30.31941404296875Z" fill="#000000" fill-opacity="1"/></g></g><g mask="url(#master_svgh_1_786/1_66)"><g><path d="M41.4915463671875,41.57830810546875C38.8266063671875,41.57830810546875,36.6065613671875,43.52861810546875,36.1082763671875,46.11380810546875C37.3821663671875,44.95823810546875,39.0268063671875,44.26093810546875,40.8241963671875,44.26093810546875L46.9830763671875,44.26093810546875L46.9830763671875,41.57830810546875L41.4915463671875,41.57830810546875Z" fill="#000000" fill-opacity="1"/></g></g></g><g style="opacity:0.05000000074505806;"><g mask="url(#master_svgi_1_786/1_70)"><g style="opacity:0.5;"><path d="M46.981733203125,30.31945044921875L46.981733203125,28.91571044921875C42.378493203125004,29.26588444921875,38.356613203125,31.97896044921875,36.009033203125,35.92374044921875L36.009033203125,41.57831044921875C36.009033203125,35.44872044921875,41.026003203125,30.403180449218752,46.981733203125,30.31945044921875Z" fill="#000000" fill-opacity="1"/></g></g><g mask="url(#master_svgj_1_786/1_73)"><g><path d="M41.4916634765625,41.5783062065625C38.9068034765625,41.5783062065625,36.7416294765625,43.4129122265625,36.1588134765625,45.8808622265625C37.4149134765625,44.6659222265625,39.0803134765625,43.9244622265625,40.9073634765625,43.9244622265625L46.981713476562504,43.9244622265625L46.981713476562504,41.5767822265625L41.490173476562504,41.5767822265625L41.4916634765625,41.5783062065625Z" fill="#000000" fill-opacity="1"/></g></g></g><g style="opacity:0.05000000074505806;"><g mask="url(#master_svgk_1_786/1_77)"><g style="opacity:0.5;"><path d="M46.981733203125,30.3194158203125L46.981733203125,29.1212158203125C42.317693203125,29.4348488203125,38.257253203125,32.2408058203125,36.009033203125,36.3012858203125L36.009033203125,41.5782158203125C36.009033203125,35.4486958203125,41.026003203125,30.4031558203125,46.981733203125,30.3194158203125Z" fill="#000000" fill-opacity="1"/></g></g><g mask="url(#master_svgl_1_786/1_80)"><g><path d="M41.491522421875,41.57831042860875C38.988232421875,41.57831042860875,36.879414421875,43.29872810546875,36.219482421875,45.64792810546875C37.453332421875,44.37360810546875,39.135052421875,43.58951810546875,40.991752421875,43.58951810546875L46.983082421875,43.58951810546875L46.983082421875,41.57830810546875L41.491522421875,41.57831042860875Z" fill="#000000" fill-opacity="1"/></g></g></g><g style="opacity:0.05000000074505806;"><g mask="url(#master_svgm_1_786/1_84)"><g style="opacity:0.5;"><path d="M46.981733203125,30.31944910546875L46.981733203125,29.32830810546875C42.246513203125,29.60083310546875,38.140103203125,32.51944810546875,36.009033203125,36.71086810546875L36.009033203125,41.57830810546875C36.009033203125,35.44872810546875,41.026003203125,30.40318810546875,46.981733203125,30.31944910546875Z" fill="#000000" fill-opacity="1"/></g></g><g mask="url(#master_svgn_1_786/1_87)"><g><path d="M41.4915145703125,41.57830810546875C39.0727545703125,41.57830810546875,37.0202995703125,43.18605810546875,36.2891845703125,45.41650810546875C37.4948645703125,44.08432810546875,39.1928745703125,43.25456810546875,41.0733145703125,43.25456810546875L46.9815845703125,43.25456810546875L46.9815845703125,41.57831042860875L41.4900445703125,41.57831042860875L41.4915145703125,41.57830810546875Z" fill="#000000" fill-opacity="1"/></g></g></g><g style="opacity:0.05000000074505806;"><g mask="url(#master_svgo_1_786/1_91)"><g style="opacity:0.5;"><path d="M46.981733203125,30.31948626953125L46.981733203125,29.53692626953125C42.159013203125,29.76530026953125,37.997733203125,32.82093626953125,36.009033203125,37.16612626953125L36.009033203125,41.578326269531246C36.009033203125,35.44875626953125,41.026003203125,30.40322226953125,46.981733203125,30.31948626953125Z" fill="#000000" fill-opacity="1"/></g></g><g mask="url(#master_svgp_1_786/1_94)"><g><path d="M41.49158373046875,41.57830810546875C39.15587373046875,41.57830810546875,37.16272473046875,43.07795810546875,36.36932373046875,45.18965810546875C37.54237373046875,43.79809810546875,39.25078373046875,42.91961810546875,41.15791373046875,42.91961810546875L46.98312373046875,42.91961810546875L46.98312373046875,41.57830810546875L41.49158373046875,41.57830810546875Z" fill="#000000" fill-opacity="1"/></g></g></g><g style="opacity:0.05000000074505806;"><g mask="url(#master_svgq_1_786/1_000)"><g style="opacity:0.5;"><path d="M46.981733203125,30.31947403515625L46.981733203125,29.75006103515625C42.047783203125,29.93123803515625,37.815323203125,33.15892103515625,36.009033203125,37.69442103515625L36.009033203125,41.57826103515625C36.009033203125,35.44875103515625,41.026003203125,30.40320903515625,46.981733203125,30.31947403515625Z" fill="#000000" fill-opacity="1"/></g></g><g mask="url(#master_svgr_1_786/1_003)"><g><path d="M41.49155267578125,41.57830810546875C39.24037267578125,41.57830810546875,37.30654867578125,42.97138810546875,36.46124267578125,44.96280810546875C37.59276267578125,43.51186810546875,39.31303267578125,42.58467810546875,41.24241267578125,42.58467810546875L46.98304267578125,42.58467810546875L46.98304267578125,41.57830810546875L41.49155267578125,41.57830810546875Z" fill="#000000" fill-opacity="1"/></g></g></g></g></g></g></g></g></svg>