<svg xmlns="http://www.w3.org/2000/svg" xmlns:xlink="http://www.w3.org/1999/xlink" fill="none" version="1.1" width="902" height="330" viewBox="0 0 902 330"><defs><clipPath id="master_svg0_1_786"><rect x="223.94482421875" y="56.037750244140625" width="678.0552368164062" height="273.9622497558594" rx="0"/></clipPath><mask id="master_svg1_1_786/1_09"><g><path d="M223.94482421875,56.037750244140625L901.14182421875,56.037750244140625L901.14182421875,329.0617502441406L223.94482421875,329.0617502441406L223.94482421875,56.037750244140625Z" fill="#FFFFFF" fill-opacity="1"/></g></mask><mask id="master_svg2_1_786/1_14"><g><path d="M223.94482421875,56.037750244140625L901.14182421875,56.037750244140625L901.14182421875,329.0617502441406L223.94482421875,329.0617502441406L223.94482421875,56.037750244140625Z" fill="#FFFFFF" fill-opacity="1"/></g></mask><mask id="master_svg3_1_786/1_17"><g><path d="M223.94482421875,56.037750244140625L901.14182421875,56.037750244140625L901.14182421875,329.0617502441406L223.94482421875,329.0617502441406L223.94482421875,56.037750244140625Z" fill="#FFFFFF" fill-opacity="1"/></g></mask><mask id="master_svg4_1_786/1_20"><g><path d="M223.94482421875,56.037750244140625L901.14182421875,56.037750244140625L901.14182421875,329.0617502441406L223.94482421875,329.0617502441406L223.94482421875,56.037750244140625Z" fill="#FFFFFF" fill-opacity="1"/></g></mask><mask id="master_svg5_1_786/1_23"><g><path d="M223.94482421875,56.037750244140625L901.14182421875,56.037750244140625L901.14182421875,329.0617502441406L223.94482421875,329.0617502441406L223.94482421875,56.037750244140625Z" fill="#FFFFFF" fill-opacity="1"/></g></mask><mask id="master_svg6_1_786/1_26"><g><path d="M223.94482421875,56.037750244140625L901.14182421875,56.037750244140625L901.14182421875,329.0617502441406L223.94482421875,329.0617502441406L223.94482421875,56.037750244140625Z" fill="#FFFFFF" fill-opacity="1"/></g></mask><mask id="master_svg7_1_786/1_29"><g><path d="M223.94482421875,56.037750244140625L901.14182421875,56.037750244140625L901.14182421875,329.0617502441406L223.94482421875,329.0617502441406L223.94482421875,56.037750244140625Z" fill="#FFFFFF" fill-opacity="1"/></g></mask><mask id="master_svg8_1_786/1_32"><g><path d="M223.94482421875,56.037750244140625L901.14182421875,56.037750244140625L901.14182421875,329.0617502441406L223.94482421875,329.0617502441406L223.94482421875,56.037750244140625Z" fill="#FFFFFF" fill-opacity="1"/></g></mask><mask id="master_svg9_1_786/1_35"><g><path d="M223.94482421875,56.037750244140625L901.14182421875,56.037750244140625L901.14182421875,329.0617502441406L223.94482421875,329.0617502441406L223.94482421875,56.037750244140625Z" fill="#FFFFFF" fill-opacity="1"/></g></mask><mask id="master_svga_1_786/1_42"><g><path d="M223.94482421875,56.037750244140625L901.14182421875,56.037750244140625L901.14182421875,329.0617502441406L223.94482421875,329.0617502441406L223.94482421875,56.037750244140625Z" fill="#FFFFFF" fill-opacity="1"/></g></mask><mask id="master_svgb_1_786/1_45"><g><path d="M223.94482421875,56.037750244140625L901.14182421875,56.037750244140625L901.14182421875,329.0617502441406L223.94482421875,329.0617502441406L223.94482421875,56.037750244140625Z" fill="#FFFFFF" fill-opacity="1"/></g></mask><mask id="master_svgc_1_786/1_49"><g><path d="M223.94482421875,56.037750244140625L901.14182421875,56.037750244140625L901.14182421875,329.0617502441406L223.94482421875,329.0617502441406L223.94482421875,56.037750244140625Z" fill="#FFFFFF" fill-opacity="1"/></g></mask><mask id="master_svgd_1_786/1_52"><g><path d="M223.94482421875,56.037750244140625L901.14182421875,56.037750244140625L901.14182421875,329.0617502441406L223.94482421875,329.0617502441406L223.94482421875,56.037750244140625Z" fill="#FFFFFF" fill-opacity="1"/></g></mask><mask id="master_svge_1_786/1_56"><g><path d="M223.94482421875,56.037750244140625L901.14182421875,56.037750244140625L901.14182421875,329.0617502441406L223.94482421875,329.0617502441406L223.94482421875,56.037750244140625Z" fill="#FFFFFF" fill-opacity="1"/></g></mask><mask id="master_svgf_1_786/1_59"><g><path d="M223.94482421875,56.037750244140625L901.14182421875,56.037750244140625L901.14182421875,329.0617502441406L223.94482421875,329.0617502441406L223.94482421875,56.037750244140625Z" fill="#FFFFFF" fill-opacity="1"/></g></mask><mask id="master_svgg_1_786/1_63"><g><path d="M223.94482421875,56.037750244140625L901.14182421875,56.037750244140625L901.14182421875,329.0617502441406L223.94482421875,329.0617502441406L223.94482421875,56.037750244140625Z" fill="#FFFFFF" fill-opacity="1"/></g></mask><mask id="master_svgh_1_786/1_66"><g><path d="M223.94482421875,56.037750244140625L901.14182421875,56.037750244140625L901.14182421875,329.0617502441406L223.94482421875,329.0617502441406L223.94482421875,56.037750244140625Z" fill="#FFFFFF" fill-opacity="1"/></g></mask><mask id="master_svgi_1_786/1_70"><g><path d="M223.94482421875,56.037750244140625L901.14182421875,56.037750244140625L901.14182421875,329.0617502441406L223.94482421875,329.0617502441406L223.94482421875,56.037750244140625Z" fill="#FFFFFF" fill-opacity="1"/></g></mask><mask id="master_svgj_1_786/1_73"><g><path d="M223.94482421875,56.037750244140625L901.14182421875,56.037750244140625L901.14182421875,329.0617502441406L223.94482421875,329.0617502441406L223.94482421875,56.037750244140625Z" fill="#FFFFFF" fill-opacity="1"/></g></mask><mask id="master_svgk_1_786/1_77"><g><path d="M223.94482421875,56.037750244140625L901.14182421875,56.037750244140625L901.14182421875,329.0617502441406L223.94482421875,329.0617502441406L223.94482421875,56.037750244140625Z" fill="#FFFFFF" fill-opacity="1"/></g></mask><mask id="master_svgl_1_786/1_80"><g><path d="M223.94482421875,56.037750244140625L901.14182421875,56.037750244140625L901.14182421875,329.0617502441406L223.94482421875,329.0617502441406L223.94482421875,56.037750244140625Z" fill="#FFFFFF" fill-opacity="1"/></g></mask><mask id="master_svgm_1_786/1_84"><g><path d="M223.94482421875,56.037750244140625L901.14182421875,56.037750244140625L901.14182421875,329.0617502441406L223.94482421875,329.0617502441406L223.94482421875,56.037750244140625Z" fill="#FFFFFF" fill-opacity="1"/></g></mask><mask id="master_svgn_1_786/1_87"><g><path d="M223.94482421875,56.037750244140625L901.14182421875,56.037750244140625L901.14182421875,329.0617502441406L223.94482421875,329.0617502441406L223.94482421875,56.037750244140625Z" fill="#FFFFFF" fill-opacity="1"/></g></mask><mask id="master_svgo_1_786/1_91"><g><path d="M223.94482421875,56.037750244140625L901.14182421875,56.037750244140625L901.14182421875,329.0617502441406L223.94482421875,329.0617502441406L223.94482421875,56.037750244140625Z" fill="#FFFFFF" fill-opacity="1"/></g></mask><mask id="master_svgp_1_786/1_94"><g><path d="M223.94482421875,56.037750244140625L901.14182421875,56.037750244140625L901.14182421875,329.0617502441406L223.94482421875,329.0617502441406L223.94482421875,56.037750244140625Z" fill="#FFFFFF" fill-opacity="1"/></g></mask><mask id="master_svgq_1_786/1_000"><g><path d="M223.94482421875,56.037750244140625L901.14182421875,56.037750244140625L901.14182421875,329.0617502441406L223.94482421875,329.0617502441406L223.94482421875,56.037750244140625Z" fill="#FFFFFF" fill-opacity="1"/></g></mask><mask id="master_svgr_1_786/1_003"><g><path d="M223.94482421875,56.037750244140625L901.14182421875,56.037750244140625L901.14182421875,329.0617502441406L223.94482421875,329.0617502441406L223.94482421875,56.037750244140625Z" fill="#FFFFFF" fill-opacity="1"/></g></mask></defs><g><g transform="matrix(1,9.002274481417771e-9,-9.002274481417771e-9,1,0,0)"><g><path d="M298.576,0L373.22,0L186.61,323.481L0,0L142.757,0L186.61,75.01L229.53,0L298.576,0Z" fill="#41B883" fill-opacity="1"/></g><g><path d="M0,0L186.61,323.481L373.22,0L298.576,0L186.61,194.088L73.7109,0L0,0Z" fill="#41B883" fill-opacity="1"/></g><g><path d="M73.71087646484375,0L186.60987646484375,195.026L298.57587646484376,0L229.52987646484374,0L186.60987646484375,75.01L142.75657646484376,0L73.71087646484375,0Z" fill="#35495E" fill-opacity="1"/></g></g><g><g clip-path="url(#master_svg0_1_786)"><g><g><g mask="url(#master_svg1_1_786/1_09)"><g><path d="M504.548937890625,329.0610622558594L504.548937890625,141.34506225585938L449.935537890625,141.34506225585938C449.751037890625,141.34506225585938,449.557237890625,141.34506225585938,449.354337890625,141.35454394585938C439.538667890625,141.70529425585937,431.651081790625,150.00000225585939,431.558837890625,160.08636225585937L431.558837890625,160.24756225585938L431.558837890625,310.4720622558594C431.558837890625,310.7850622558594,431.577292290625,311.13506225585934,431.604966890625,311.52406225585935C432.435232890625,321.1930622558594,440.313597890625,328.60606225585934,449.751037890625,329.0230622558594C450.147737890625,329.0420622558594,450.525937890625,329.05206225585937,450.87643789062497,329.05206225585937L504.548937890625,329.05206225585937L504.548937890625,329.0610622558594Z" fill="#E72264" fill-opacity="1"/></g></g><g mask="url(#master_svg2_1_786/1_14)"><g><path d="M729.68182890625,328.9669194335937C739.85722890625,328.17991943359374,747.91092890625,319.5729194335937,747.98472890625,309.07891943359374C747.98472890625,309.0119194335938,747.98472890625,308.94591943359376,747.98472890625,308.8799194335937L747.98472890625,160.46591943359374C747.98472890625,160.40901943359376,747.98472890625,160.34271943359374,747.98472890625,160.28581943359376C747.93862890625,149.91504943359374,739.72812890625,141.45919643359375,729.63572890625,141.35491943359375C729.56192890625,141.35491943359375,729.48812890625,141.35491943359375,729.41432890625,141.35491943359375L674.99462890625,141.35491943359375L674.99462890625,329.07091943359376L727.40322890625,329.07091943359376C728.1135289062499,329.07091943359376,728.87922890625,329.03291943359375,729.68182890625,328.97691943359376L729.68182890625,328.9669194335937Z" fill="#E72264" fill-opacity="1"/></g></g><g mask="url(#master_svg3_1_786/1_17)"><g><path d="M494.3086058203125,141.35491943359375L551.5050658203126,141.35491943359375C557.1140658203125,141.35491943359375,565.0477658203125,146.01890943359376,569.2359658203125,151.78251943359376L690.5199658203126,318.62491943359373C694.7089658203125,324.38791943359377,693.5549658203125,329.05191943359375,687.9559658203125,329.05191943359375L630.7589658203125,329.05191943359375C625.1499658203124,329.05191943359375,617.2169658203125,324.38791943359377,613.0279658203125,318.62491943359373L491.7347858203125,151.78251943359376C487.5465258203125,146.02838943359376,488.6996778203125,141.35491943359375,494.2994058203125,141.35491943359375L494.3086058203125,141.35491943359375Z" fill="#E72264" fill-opacity="1"/></g></g><g mask="url(#master_svg4_1_786/1_20)"><g><path d="M683.4257631835937,141.35491943359375L626.2297631835937,141.35491943359375C620.6207631835937,141.35491943359375,612.6867631835937,146.01890943359376,608.4987631835937,151.78251943359376L487.21458318359373,318.62491943359373C483.0263231835938,324.38791943359377,484.17947518359375,329.05191943359375,489.7792031835937,329.05191943359375L546.9756631835937,329.05191943359375C552.5846631835938,329.05191943359375,560.5183631835937,324.38791943359377,564.7065631835937,318.62491943359373L685.9907631835938,151.78251943359376C690.1787631835938,146.02838943359376,689.0257631835938,141.35491943359375,683.4257631835937,141.35491943359375Z" fill="#E72264" fill-opacity="1"/></g></g><g mask="url(#master_svg5_1_786/1_23)"><g><path d="M747.080794140625,92.06045024414063Q747.080794140625,92.94475024414062,747.038594140625,93.82805024414063Q746.996394140625,94.71125024414061,746.911994140625,95.59135024414063Q746.827694140625,96.47135024414062,746.701394140625,97.34605024414063Q746.575094140625,98.22085024414062,746.407194140625,99.08815024414062Q746.239294140625,99.95545024414062,746.030194140625,100.81325024414062Q745.821094140625,101.67105024414062,745.571294140625,102.51735024414063Q745.321494140625,103.36355024414063,745.031594140625,104.19615024414063Q744.741694140625,105.02875024414062,744.412294140625,105.84575024414062Q744.082994140625,106.66275024414062,743.715094140625,107.46215024414062Q743.347094140625,108.26155024414062,742.941494140625,109.04145024414063Q742.5357941406251,109.82135024414063,742.093394140625,110.57985024414063Q741.650894140625,111.33835024414063,741.172794140625,112.07365024414062Q740.694694140625,112.80885024414061,740.1820941406249,113.51915024414063Q739.669394140625,114.22945024414062,739.123494140625,114.91305024414063Q738.577594140625,115.59665024414062,737.999594140625,116.25185024414063Q737.421694140625,116.90705024414063,736.813194140625,117.53235024414062Q736.204694140625,118.15765024414063,735.566994140625,118.75155024414062Q734.929394140625,119.34545024414062,734.264094140625,119.90645024414061Q733.598894140625,120.46735024414062,732.907694140625,120.99415024414063Q732.216494140625,121.52095024414062,731.500894140625,122.01225024414063Q730.785394140625,122.50355024414063,730.047194140625,122.95815024414063Q729.309094140625,123.41285024414063,728.550194140625,123.82965024414062Q727.791194140625,124.24655024414062,727.013194140625,124.62465024414062Q726.235294140625,125.00275024414063,725.440194140625,125.34115024414062Q724.645194140625,125.67955024414063,723.834894140625,125.97745024414063Q723.024594140625,126.27535024414063,722.201094140625,126.53205024414062Q721.377594140625,126.78875024414063,720.542794140625,127.00365024414063Q719.707994140625,127.21845024414063,718.863994140625,127.39105024414063Q718.019894140625,127.56355024414063,717.168694140625,127.69325024414063Q716.317394140625,127.82305024414063,715.460994140625,127.90975024414062Q714.604594140625,127.99645024414062,713.744994140625,128.0398502441406Q712.885494140625,128.08315024414063,712.024894140625,128.08315024414063Q711.164294140625,128.08315024414063,710.304794140625,128.0398502441406Q709.445294140625,127.99645024414062,708.588794140625,127.90975024414062Q707.732394140625,127.82305024414063,706.881094140625,127.69325024414063Q706.029894140625,127.56355024414063,705.185794140625,127.39105024414063Q704.341794140625,127.21845024414063,703.506994140625,127.00365024414063Q702.672194140625,126.78875024414063,701.848694140625,126.53205024414062Q701.025194140625,126.27535024414063,700.214894140625,125.97745024414063Q699.404694140625,125.67955024414063,698.609594140625,125.34115024414062Q697.814494140625,125.00275024414063,697.036594140625,124.62465024414062Q696.258594140625,124.24655024414062,695.499694140625,123.82965024414062Q694.740694140625,123.41285024414063,694.002594140625,122.95815024414063Q693.264394140625,122.50355024414063,692.548894140625,122.01225024414063Q691.833294140625,121.52095024414062,691.142094140625,120.99415024414063Q690.450894140625,120.46735024414062,689.785694140625,119.90645024414061Q689.120394140625,119.34545024414062,688.482794140625,118.75155024414062Q687.845194140625,118.15765024414063,687.236594140625,117.53235024414062Q686.628114140625,116.90705024414063,686.050184140625,116.25185024414063Q685.472264140625,115.59665024414062,684.926324140625,114.91305024414063Q684.380374140625,114.22945024414062,683.867734140625,113.51915024414063Q683.355094140625,112.80885024414061,682.876984140625,112.07365024414062Q682.398874140625,111.33835024414063,681.956444140625,110.57985024414063Q681.514024140625,109.82135024414063,681.108354140625,109.04145024414063Q680.702684140625,108.26155024414062,680.334734140625,107.46215024414062Q679.966794140625,106.66275024414062,679.637464140625,105.84575024414062Q679.308134140625,105.02875024414062,679.018224140625,104.19615024414063Q678.728304140625,103.36355024414063,678.478494140625,102.51735024414063Q678.228674140625,101.67105024414062,678.019574140625,100.81325024414062Q677.810473140625,99.95545024414062,677.642583140625,99.08815024414062Q677.474694140625,98.22085024414062,677.348421140625,97.34605024414063Q677.222149140625,96.47135024414062,677.137798140625,95.59135024414063Q677.053446840625,94.71125024414061,677.011220540625,93.82805024414063Q676.968994140625,92.94475024414062,676.968994140625,92.06045024414063Q676.968994140625,91.17615024414062,677.011220540625,90.29295024414063Q677.053446840625,89.40965024414062,677.137798140625,88.52965024414063Q677.222149140625,87.64955024414063,677.348421140625,86.77485024414062Q677.474694140625,85.90005024414063,677.642583140625,85.03275024414063Q677.810473140625,84.16545024414063,678.019574140625,83.30765024414063Q678.228674140625,82.44985024414062,678.478494140625,81.60365024414062Q678.728304140625,80.75735024414062,679.018224140625,79.92475024414063Q679.308134140625,79.09215024414063,679.637464140625,78.27515024414063Q679.966794140625,77.45815024414063,680.334734140625,76.65875024414062Q680.702684140625,75.85935024414063,681.108354140625,75.07945024414062Q681.514024140625,74.29955024414062,681.956444140625,73.54105024414062Q682.398874140625,72.78255024414062,682.876984140625,72.04735024414063Q683.355094140625,71.31205024414062,683.867734140625,70.60175024414062Q684.380374140625,69.89145024414063,684.926324140625,69.20785024414063Q685.472264140625,68.52435024414062,686.050184140625,67.86905024414062Q686.628114140625,67.21385024414063,687.236594140625,66.58855024414062Q687.845194140625,65.96326024414063,688.482794140625,65.36940024414062Q689.120394140625,64.77553024414063,689.785694140625,64.21453024414063Q690.450894140625,63.653530244140626,691.142094140625,63.126750244140624Q691.833294140625,62.59997024414062,692.548894140625,62.108670244140626Q693.264394140625,61.61738024414063,694.002594140625,61.162750244140625Q694.740694140625,60.70813024414063,695.499694140625,60.29127024414063Q696.258594140625,59.87441024414063,697.036594140625,59.49632024414063Q697.814494140625,59.118230244140626,698.609594140625,58.77982024414062Q699.404694140625,58.44141024414063,700.214894140625,58.14349024414062Q701.025194140625,57.84558024414063,701.848694140625,57.588880244140626Q702.672194140625,57.33217024414063,703.506994140625,57.117310244140626Q704.341794140625,56.902436244140624,705.185794140625,56.729916244140625Q706.029894140625,56.55739624414063,706.881094140625,56.427641244140624Q707.732394140625,56.297887244140625,708.588794140625,56.211209244140626Q709.445294140625,56.12453214414062,710.304794140625,56.081141144140624Q711.164294140625,56.037750244140625,712.024894140625,56.037750244140625Q712.885494140625,56.037750244140625,713.744994140625,56.081141144140624Q714.604594140625,56.12453214414062,715.460994140625,56.211209244140626Q716.317394140625,56.297887244140625,717.168694140625,56.427641244140624Q718.019894140625,56.55739624414063,718.863994140625,56.729916244140625Q719.707994140625,56.902436244140624,720.542794140625,57.117310244140626Q721.377594140625,57.33217024414063,722.201094140625,57.588880244140626Q723.024594140625,57.84558024414063,723.834894140625,58.14349024414062Q724.645194140625,58.44141024414063,725.440194140625,58.77982024414062Q726.235294140625,59.118230244140626,727.013194140625,59.49632024414063Q727.791194140625,59.87441024414063,728.550094140625,60.29127024414063Q729.309094140625,60.70813024414063,730.047194140625,61.162750244140625Q730.785394140625,61.61738024414063,731.500894140625,62.108670244140626Q732.216494140625,62.59997024414062,732.907694140625,63.126750244140624Q733.598894140625,63.653530244140626,734.264094140625,64.21453024414063Q734.929394140625,64.77553024414063,735.566994140625,65.36940024414062Q736.204694140625,65.96326024414063,736.813194140625,66.58855024414062Q737.421694140625,67.21385024414063,737.999594140625,67.86905024414062Q738.577594140625,68.52435024414062,739.123494140625,69.20785024414063Q739.669394140625,69.89145024414063,740.1820941406249,70.60175024414062Q740.694694140625,71.31205024414062,741.172794140625,72.04735024414063Q741.650894140625,72.78255024414062,742.093394140625,73.54105024414062Q742.5357941406251,74.29955024414062,742.941494140625,75.07945024414062Q743.347094140625,75.85935024414063,743.715094140625,76.65875024414062Q744.082994140625,77.45815024414063,744.412294140625,78.27515024414063Q744.741694140625,79.09215024414063,745.031594140625,79.92475024414063Q745.321494140625,80.75735024414062,745.571294140625,81.60365024414062Q745.821094140625,82.44985024414062,746.030194140625,83.30765024414063Q746.239294140625,84.16545024414063,746.407194140625,85.03275024414063Q746.575094140625,85.90005024414063,746.701394140625,86.77485024414062Q746.827694140625,87.64955024414063,746.911994140625,88.52965024414063Q746.996394140625,89.40965024414062,747.038594140625,90.29295024414063Q747.080794140625,91.17615024414062,747.080794140625,92.06045024414063Z" fill="#E72264" fill-opacity="1"/></g></g><g mask="url(#master_svg6_1_786/1_26)"><g><path d="M503.53416328125,92.06045024414063Q503.53416328125,92.94475024414062,503.49196328125,93.82805024414063Q503.44976328125,94.71125024414061,503.36536328125,95.59135024414063Q503.28106328125,96.47135024414062,503.15476328125,97.34605024414063Q503.02846328124997,98.22085024414062,502.86056328125,99.08815024414062Q502.69266328125,99.95545024414062,502.48356328125,100.81325024414062Q502.27446328125,101.67105024414062,502.02466328125,102.51735024414063Q501.77486328125,103.36355024414063,501.48496328125,104.19615024414063Q501.19506328125,105.02875024414062,500.86566328125,105.84575024414062Q500.53636328125003,106.66275024414062,500.16846328125,107.46215024414062Q499.80046328125,108.26155024414062,499.39486328124997,109.04145024414063Q498.98916328125,109.82135024414063,498.54676328125,110.57985024414063Q498.10426328125,111.33835024414063,497.62616328125,112.07365024414062Q497.14806328125,112.80885024414061,496.63546328125,113.51915024414063Q496.12276328125,114.22945024414062,495.57686328125,114.91305024414063Q495.03096328125,115.59665024414062,494.45296328125,116.25185024414063Q493.87506328125,116.90705024414063,493.26656328125,117.53235024414062Q492.65806328125,118.15765024414063,492.02036328125,118.75155024414062Q491.38276328125,119.34545024414062,490.71746328125,119.90645024414061Q490.05226328125,120.46735024414062,489.36106328125,120.99415024414063Q488.66986328125,121.52095024414062,487.95426328125,122.01225024414063Q487.23876328125,122.50355024414063,486.50056328125,122.95815024414063Q485.76246328125,123.41285024414063,485.00356328125,123.82965024414062Q484.24456328125,124.24655024414062,483.46656328125,124.62465024414062Q482.68866328125,125.00275024414063,481.89356328125,125.34115024414062Q481.09856328125,125.67955024414063,480.28826328125,125.97745024414063Q479.47796328125,126.27535024414063,478.65446328125,126.53205024414062Q477.83096328125,126.78875024414063,476.99616328125,127.00365024414063Q476.16136328125,127.21845024414063,475.31736328125,127.39105024414063Q474.47326328125,127.56355024414063,473.62206328125,127.69325024414063Q472.77076328124997,127.82305024414063,471.91436328125,127.90975024414062Q471.05796328125,127.99645024414062,470.19836328125,128.0398502441406Q469.33886328125,128.08315024414063,468.47826328125,128.08315024414063Q467.61766328125,128.08315024414063,466.75816328125,128.0398502441406Q465.89866328125,127.99645024414062,465.04216328125,127.90975024414062Q464.18576328125,127.82305024414063,463.33446328125,127.69325024414063Q462.48326328125,127.56355024414063,461.63916328125,127.39105024414063Q460.79516328125,127.21845024414063,459.96036328125,127.00365024414063Q459.12556328125,126.78875024414063,458.30206328125,126.53205024414062Q457.47856328125,126.27535024414063,456.66826328125,125.97745024414063Q455.85806328125,125.67955024414063,455.06296328125,125.34115024414062Q454.26786328125,125.00275024414063,453.48996328124997,124.62465024414062Q452.71196328125,124.24655024414062,451.95306328125,123.82965024414062Q451.19406328125,123.41285024414063,450.45596328125,122.95815024414063Q449.71776328125,122.50355024414063,449.00226328125,122.01225024414063Q448.28666328125,121.52095024414062,447.59546328125,120.99415024414063Q446.90426328125,120.46735024414062,446.23906328125,119.90645024414061Q445.57376328125,119.34545024414062,444.93616328125,118.75155024414062Q444.29856328125,118.15765024414063,443.68996328125,117.53235024414062Q443.08148328125,116.90705024414063,442.50355328125,116.25185024414063Q441.92563328125,115.59665024414062,441.37969328125,114.91305024414063Q440.83374328125,114.22945024414062,440.32110328125,113.51915024414063Q439.80846328125,112.80885024414061,439.33035328125,112.07365024414062Q438.85224328125,111.33835024414063,438.40981328125,110.57985024414063Q437.96739328125,109.82135024414063,437.56172328125,109.04145024414063Q437.15605328125,108.26155024414062,436.78810328125,107.46215024414062Q436.42016328125,106.66275024414062,436.09083328125,105.84575024414062Q435.76150328125,105.02875024414062,435.47159328125,104.19615024414063Q435.18167328125,103.36355024414063,434.93186328125,102.51735024414063Q434.68204328125,101.67105024414062,434.47294328125,100.81325024414062Q434.26384228125,99.95545024414062,434.09595228125,99.08815024414062Q433.92806328125,98.22085024414062,433.80179028125,97.34605024414063Q433.67551828125,96.47135024414062,433.59116728125,95.59135024414063Q433.50681598125,94.71125024414061,433.46458968125,93.82805024414063Q433.42236328125,92.94475024414062,433.42236328125,92.06045024414063Q433.42236328125,91.17615024414062,433.46458968125,90.29295024414063Q433.50681598125,89.40965024414062,433.59116728125,88.52965024414063Q433.67551828125,87.64955024414063,433.80179028125,86.77485024414062Q433.92806328125,85.90005024414063,434.09595228125,85.03275024414063Q434.26384228125,84.16545024414063,434.47294328125,83.30765024414063Q434.68204328125,82.44985024414062,434.93186328125,81.60365024414062Q435.18167328125,80.75735024414062,435.47159328125,79.92475024414063Q435.76150328125,79.09215024414063,436.09083328125,78.27515024414063Q436.42016328125,77.45815024414063,436.78810328125,76.65875024414062Q437.15605328125,75.85935024414063,437.56172328125,75.07945024414062Q437.96739328125,74.29955024414062,438.40981328125,73.54105024414062Q438.85224328125,72.78255024414062,439.33035328125,72.04735024414063Q439.80846328125,71.31205024414062,440.32110328125,70.60175024414062Q440.83374328125,69.89145024414063,441.37969328125,69.20785024414063Q441.92563328125,68.52435024414062,442.50355328125,67.86905024414062Q443.08148328125,67.21385024414063,443.68996328125,66.58855024414062Q444.29856328125,65.96326024414063,444.93616328125,65.36940024414062Q445.57376328125,64.77553024414063,446.23906328125,64.21453024414063Q446.90426328125,63.653530244140626,447.59546328125,63.126750244140624Q448.28666328125,62.59997024414062,449.00226328125,62.108670244140626Q449.71776328125,61.61738024414063,450.45596328125,61.162750244140625Q451.19406328125,60.70813024414063,451.95306328125,60.29127024414063Q452.71196328125,59.87441024414063,453.48996328124997,59.49632024414063Q454.26786328125,59.118230244140626,455.06296328125,58.77982024414062Q455.85806328125,58.44141024414063,456.66826328125,58.14349024414062Q457.47856328125,57.84558024414063,458.30206328125,57.588880244140626Q459.12556328125,57.33217024414063,459.96036328125,57.117310244140626Q460.79516328125,56.902436244140624,461.63916328125,56.729916244140625Q462.48326328125,56.55739624414063,463.33446328125,56.427641244140624Q464.18576328125,56.297887244140625,465.04216328125,56.211209244140626Q465.89866328125,56.12453214414062,466.75816328125,56.081141144140624Q467.61766328125,56.037750244140625,468.47826328125,56.037750244140625Q469.33886328125,56.037750244140625,470.19836328125,56.081141144140624Q471.05796328125,56.12453214414062,471.91436328125,56.211209244140626Q472.77076328124997,56.297887244140625,473.62206328125,56.427641244140624Q474.47326328125,56.55739624414063,475.31736328125,56.729916244140625Q476.16136328125,56.902436244140624,476.99616328125,57.117310244140626Q477.83096328125,57.33217024414063,478.65446328125,57.588880244140626Q479.47796328125,57.84558024414063,480.28826328125,58.14349024414062Q481.09856328125,58.44141024414063,481.89356328125,58.77982024414062Q482.68866328125,59.118230244140626,483.46656328125,59.49632024414063Q484.24456328125,59.87441024414063,485.00346328125,60.29127024414063Q485.76246328125,60.70813024414063,486.50056328125,61.162750244140625Q487.23876328125,61.61738024414063,487.95426328125,62.108670244140626Q488.66986328125,62.59997024414062,489.36106328125,63.126750244140624Q490.05226328125,63.653530244140626,490.71746328125,64.21453024414063Q491.38276328125,64.77553024414063,492.02036328125,65.36940024414062Q492.65806328125,65.96326024414063,493.26656328125,66.58855024414062Q493.87506328125,67.21385024414063,494.45296328125,67.86905024414062Q495.03096328125,68.52435024414062,495.57686328125,69.20785024414063Q496.12276328125,69.89145024414063,496.63546328125,70.60175024414062Q497.14806328125,71.31205024414062,497.62616328125,72.04735024414063Q498.10426328125,72.78255024414062,498.54676328125,73.54105024414062Q498.98916328125,74.29955024414062,499.39486328124997,75.07945024414062Q499.80046328125,75.85935024414063,500.16846328125,76.65875024414062Q500.53636328125003,77.45815024414063,500.86566328125,78.27515024414063Q501.19506328125,79.09215024414063,501.48496328125,79.92475024414063Q501.77486328125,80.75735024414062,502.02466328125,81.60365024414062Q502.27446328125,82.44985024414062,502.48356328125,83.30765024414063Q502.69266328125,84.16545024414063,502.86056328125,85.03275024414063Q503.02846328124997,85.90005024414063,503.15476328125,86.77485024414062Q503.28106328125,87.64955024414063,503.36536328125,88.52965024414063Q503.44976328125,89.40965024414062,503.49196328125,90.29295024414063Q503.53416328125,91.17615024414062,503.53416328125,92.06045024414063Z" fill="#E72264" fill-opacity="1"/></g></g><g mask="url(#master_svg7_1_786/1_29)"><g><path d="M865.16339609375,56.037750244140625L809.81189609375,56.037750244140625C789.94079609375,56.037750244140625,773.83349609375,72.58925024414063,773.83349609375,93.00845024414062L773.83349609375,149.88645024414063C773.83349609375,170.30575024414063,789.94079609375,186.8567502441406,809.81189609375,186.8567502441406L865.16339609375,186.8567502441406C885.03449609375,186.8567502441406,901.14149609375,170.30575024414063,901.14149609375,149.88645024414063L901.14149609375,93.00845024414062C901.14149609375,72.58925024414063,885.03449609375,56.037750244140625,865.16339609375,56.037750244140625ZM828.60369609375,93.33075024414063L828.60369609375,131.72335024414062C828.60369609375,136.89925024414063,827.59819609375,141.3926502441406,825.58709609375,145.19395024414064C823.57599609375,148.99535024414064,820.70689609375,151.94345024414062,816.97989609375,154.03845024414062C813.25289609375,156.13375024414063,808.83399609375,157.18575024414062,803.73249609375,157.18575024414062C799.39659609375,157.18575024414062,795.65119609375,156.3797502441406,792.48689609375,154.77795024414064C789.32269609375,153.17585024414063,786.66579609375,150.92915024414063,784.49789609375,148.04735024414063Q778.45534609375,141.34525024414063,783.99049609375,136.61485024414063Q789.64559609375,131.78025024414063,794.54419609375,138.11265024414064C795.68809609375,139.75265024414063,797.04419609375,140.9850502441406,798.61249609375,141.8002502441406C800.17149609375,142.62495024414062,801.94279609375,143.03265024414063,803.92619609375,143.03265024414063C805.77129609375,143.03265024414063,807.40419609375,142.64395024414063,808.80639609375,141.85715024414063C810.20859609375,141.07035024414063,811.32479609375,139.89485024414063,812.15509609375,138.32125024414063C812.98539609375,136.74765024414063,813.40049609375,134.81375024414064,813.40049609375,132.51965024414062L813.40049609375,93.34025024414063Q813.25289609375,85.43415024414062,820.89139609375,85.43415024414062Q828.52989609375,85.43415024414062,828.61289609375,93.34025024414063L828.60369609375,93.33075024414063ZM882.94949609375,149.29865024414062C878.77049609375,153.54555024414063,872.61729609375,156.10475024414063,864.49909609375,156.97675024414062C858.91789609375,157.58375024414062,854.04689609375,157.18575024414062,849.89559609375,155.79225024414063C845.74419609375,154.39875024414061,841.86029609375,151.98145024414063,838.23479609375,148.54975024414063Q832.62589609375,143.58245024414063,837.14629609375,137.34485024414062Q840.54109609375,132.65235024414062,846.92499609375,137.52495024414063C849.34199609375,139.83795024414064,851.93429609375,141.54435024414062,854.71109609375,142.66295024414063C857.48789609375,143.78155024414062,860.61529609375,144.1512502441406,864.11159609375,143.77205024414064C867.22049609375,143.44025024414063,869.58219609375,142.56805024414064,871.20579609375,141.17455024414062C872.82949609375,139.78105024414063,873.53059609375,138.03685024414062,873.31839609375,135.95125024414062C873.13389609375,134.13125024414063,872.42359609375,132.69025024414063,871.19659609375,131.63805024414063C869.9695960937499,130.58585024414063,868.35519609375,129.74215024414065,866.36259609375,129.09755024414062C864.36999609375,128.45285024414062,862.22969609375,127.88415024414063,859.93259609375,127.37215024414063C857.63559609375,126.86025024414063,855.31079609375,126.20625024414062,852.94909609375,125.40995024414063C850.58749609375,124.61365024414063,848.40109609375,123.56135024414063,846.37149609375,122.26265024414063C844.3418960937499,120.96395024414062,842.64449609375,119.21025024414062,841.26069609375,116.98255024414063C839.87699609375,114.75475024414062,839.00979609375,111.92035024414062,838.65919609375,108.46975024414063C838.2163960937501,104.16595024414062,838.8436960937499,100.37415024414062,840.52269609375,97.09415024414062C842.21099609375,93.81425024414062,844.77559609375,91.17885024414062,848.22579609375,89.18815024414062C851.67599609375,87.19745024414063,855.68899609375,85.95555024414062,860.25549609375,85.46265024414063C865.01569609375,84.95075024414062,869.41609609375,85.32995024414063,873.45679609375,86.60015024414062C877.49749609375,87.87995024414062,880.93849609375,89.81375024414064,883.77049609375,92.40175024414063Q887.73749609375,95.82385024414063,884.51749609375,101.71075024414063Q882.01749609375,106.28945024414062,874.99749609375,103.54035024414063C872.74639609375,101.60645024414063,870.53239609375,100.23195024414062,868.37369609375,99.41665024414063C866.20579609375,98.60145024414062,863.85329609375,98.32655024414063,861.31639609375,98.60145024414062C858.71479609375,98.88585024414063,856.70369609375,99.61575024414063,855.28309609375,100.78175024414062C853.86239609375,101.95725024414062,853.25349609375,103.49295024414062,853.44719609375,105.37935024414062C853.62249609375,107.07625024414062,854.33289609375,108.39395024414063,855.58749609375,109.35135024414063C856.84209609375,110.29935024414063,858.43809609375,111.06715024414063,860.39389609375,111.64545024414062C862.34039609375,112.22375024414063,864.48989609375,112.78305024414063,866.81469609375,113.32335024414063C869.14869609375,113.86365024414062,871.49189609375,114.51775024414061,873.84449609375,115.28565024414063C876.19649609375,116.05345024414063,878.38349609375,117.15315024414062,880.38549609375,118.58455024414062C882.38649609375,120.01595024414063,884.10249609375,121.87405024414062,885.52349609375,124.15855024414063C886.94449609375,126.44315024414063,887.83949609375,129.41035024414063,888.21749609375,133.05995024414062C888.89049609375,139.64835024414063,887.13749609375,145.06125024414064,882.94949609375,149.29865024414062Z" fill="#E72264" fill-opacity="1"/></g></g><g mask="url(#master_svg8_1_786/1_32)"><g><path d="M322.81172421875,56.360198974609375C268.20752421875,56.360198974609375,223.94482421875,101.84359897460938,223.94482421875,157.9531989746094C223.94482421875,159.05319897460936,223.96327471875,160.1431989746094,224.00017561875,161.23319897460937L224.00017561875,258.8641989746094L224.00017561875,258.8831989746094L224.00017561875,268.8091989746094Q224.00017561875,268.8091989746094,224.00940091875,268.79919897460934L224.00940091875,293.34219897460935C224.00940091875,293.5321989746094,224.00017561875,293.71219897460935,224.00017561875,293.9011989746094C224.00017561875,294.09119897460937,224.00940091875,294.28019897460933,224.01862611875,294.4701989746094L224.01862611875,294.9251989746094L224.02785141875,294.9251989746094C224.55369021875,313.7801989746094,239.58162421875,328.9001989746094,258.05972421875,328.9001989746094C276.53792421875,328.9001989746094,291.72262421875,313.7801989746094,292.24852421875,294.9251989746094L292.24852421875,258.8831989746094L320.49622421875,258.8831989746094C321.26182421875,258.9021989746094,322.03682421875,258.9121989746094,322.80252421875,258.9121989746094C377.40682421875,258.9121989746094,421.66982421875,214.06419897460938,421.66982421875,157.9531989746094C421.66982421875,101.84359897460938,377.41582421875,56.36019162919938,322.81172421875,56.360198974609375ZM322.81172421875,188.76219897460936C316.76922421874997,188.76219897460936,301.45532421875,188.76219897460936,295.09912421875003,188.76219897460936L292.27612421875,188.76219897460936L292.27612421875,157.96319897460938C292.27612421875,140.70079897460937,306.01252421875,126.69929897460938,322.81172421875,126.69929897460938C339.61082421875,126.69929897460938,353.23682421875003,140.70079897460937,353.23682421875003,157.96319897460938C353.23682421875003,175.22519897460938,339.61082421875,188.77219897460938,322.81172421875,188.77219897460938L322.81172421875,188.76219897460936Z" fill="#E72264" fill-opacity="1"/></g></g></g><g mask="url(#master_svg9_1_786/1_35)"><g style="opacity:0.15000000596046448;"><path d="M257.20182421875,258.90289306640625L292.20242421875,258.90289306640625L292.20242421875,294.93509306640624L292.04552421875,294.93509306640624C291.51972421875,313.79009306640626,276.49182421875,328.91019306640624,258.01362421875,328.91019306640624C239.53552421875,328.91019306640624,224.49833821875,313.79009306640626,223.97249991875,294.93509306640624L223.96327471875,294.93509306640624L223.96327471875,294.48009306640625C223.96327471875,294.29049306640627,223.94482421875,294.10089306640623,223.94482421875,293.91129306640624C223.94482421875,293.72169306640626,223.95404945875,293.5415930664062,223.95404945875,293.35199306640624L223.95404945875,290.81149306640623C225.00572421875,273.94719306640627,240.49492421875,258.90290753120627,257.19262421875,258.90290753120627L257.20182421875,258.90289306640625Z" fill="#1D1D1B" fill-opacity="1"/></g></g><g><g style="opacity:0.05000000074505806;"><g mask="url(#master_svga_1_786/1_42)"><g style="opacity:0.5;"><path d="M224.0009765625,215.56166611328126L224.0009765625,258.88376611328124C224.0009765625,220.71856611328124,255.2099765625,189.30296611328126,292.2585765625,188.78166611328126L292.2585765625,174.96026611328125C264.7212765625,177.93687611328124,240.3388765625,193.17066611328124,224.0009765625,215.56166611328126Z" fill="#000000" fill-opacity="1"/></g></g><g mask="url(#master_svgb_1_786/1_45)"><g><path d="M224.0552978515625,291.4844195800781C232.0997078515625,285.4174195800781,241.8599978515625,281.8435195800781,252.3951978515625,281.8435195800781L292.2666978515625,281.8435195800781L292.2666978515625,258.8838195800781L258.1056978515625,258.8838195800781C240.0610978515625,258.8838195800781,225.3099378515625,273.26441958007814,224.0552978515625,291.4844195800781Z" fill="#000000" fill-opacity="1"/></g></g></g><g style="opacity:0.05000000074505806;"><g mask="url(#master_svgc_1_786/1_49)"><g style="opacity:0.5;"><path d="M292.2585765625,188.78141616210937L292.2585765625,176.23031616210938C264.4905765625,179.02681616210938,239.9883765625,194.59241616210937,224.0009765625,217.44791616210938L224.0009765625,258.88351616210934C224.0009765625,220.71841616210938,255.2099765625,189.30281616210937,292.2585765625,188.78141616210937Z" fill="#000000" fill-opacity="1"/></g></g><g mask="url(#master_svgd_1_786/1_52)"><g><path d="M258.10522099609375,258.8838195800781C240.54962099609375,258.8838195800781,226.10287099609374,272.5061195800781,224.18402099609375,290.0245195800781C232.21920099609375,283.57831958007813,242.14552099609375,279.7675195800781,252.91142099609374,279.7675195800781L292.25712099609376,279.7675195800781L292.25712099609376,258.8932795700781L258.0960209960937,258.8932795700781L258.10522099609375,258.8838195800781Z" fill="#000000" fill-opacity="1"/></g></g></g><g style="opacity:0.05000000074505806;"><g mask="url(#master_svge_1_786/1_56)"><g style="opacity:0.5;"><path d="M292.2585765625,188.7815109375L292.2585765625,177.4912109375C264.2414765625,180.0981209375,239.5824765625,196.0429109375,224.0009765625,219.41031093750001L224.0009765625,258.8741109375C224.0009765625,220.7090109375,255.2099765625,189.2934109375,292.2585765625,188.7720109375L292.2585765625,188.7815109375Z" fill="#000000" fill-opacity="1"/></g></g><g mask="url(#master_svgf_1_786/1_59)"><g><path d="M258.105596484375,258.8838195800781C241.03889648437502,258.8838195800781,226.915056484375,271.7477195800781,224.368896484375,288.5551195800781C232.357956484375,281.73931958007813,242.450396484375,277.67251958007813,253.428396484375,277.67251958007813L292.257496484375,277.67251958007813L292.257496484375,258.88383404487814L258.096396484375,258.88383404487814L258.105596484375,258.8838195800781Z" fill="#000000" fill-opacity="1"/></g></g></g><g style="opacity:0.05000000074505806;"><g mask="url(#master_svgg_1_786/1_63)"><g style="opacity:0.5;"><path d="M292.2585765625,188.78129150390626L292.2585765625,178.76129150390625C263.9555765625,181.16912150390624,239.1303765625,197.54999150390626,224.0009765625,221.48609150390627L224.0009765625,258.88339150390624C224.0009765625,220.71829150390624,255.2099765625,189.30269150390626,292.2585765625,188.78129150390626Z" fill="#000000" fill-opacity="1"/></g></g><g mask="url(#master_svgh_1_786/1_66)"><g><path d="M258.10594716796874,258.8838195800781C241.52824716796874,258.8838195800781,227.71802716796876,271.0272195800781,224.61834716796875,287.1237195800781C232.54282716796874,279.92861958007813,242.77364716796876,275.5870195800781,253.95464716796874,275.5870195800781L292.26704716796877,275.5870195800781L292.26704716796877,258.8838195800781L258.10594716796874,258.8838195800781Z" fill="#000000" fill-opacity="1"/></g></g></g><g style="opacity:0.05000000074505806;"><g mask="url(#master_svgi_1_786/1_70)"><g style="opacity:0.5;"><path d="M292.2585765625,188.78147924804688L292.2585765625,180.04122924804688C263.62337656249997,182.22155924804687,238.6045765625,199.1143292480469,224.0009765625,223.6761292480469L224.0009765625,258.8836292480469C224.0009765625,220.71842924804687,255.2099765625,189.30284924804687,292.2585765625,188.78147924804688Z" fill="#000000" fill-opacity="1"/></g></g><g mask="url(#master_svgj_1_786/1_73)"><g><path d="M258.1067392578125,258.8838175332813C242.0271392578125,258.8838175332813,228.5582592578125,270.30682861328125,224.9327392578125,285.6733286132812C232.7465192578125,278.10852861328124,243.1064392578125,273.49192861328123,254.4719392578125,273.49192861328123L292.2585392578125,273.49192861328123L292.2585392578125,258.87432861328125L258.0975392578125,258.87432861328125L258.1067392578125,258.8838175332813Z" fill="#000000" fill-opacity="1"/></g></g></g><g style="opacity:0.05000000074505806;"><g mask="url(#master_svgk_1_786/1_77)"><g style="opacity:0.5;"><path d="M292.2585765625,188.78129078125L292.2585765625,181.32080078125C263.2451765625,183.27361078125,237.9864765625,200.74460078125,224.0009765625,226.02690078125L224.0009765625,258.88340078125C224.0009765625,220.71830078125,255.2099765625,189.30269078125,292.2585765625,188.78129078125Z" fill="#000000" fill-opacity="1"/></g></g><g mask="url(#master_svgl_1_786/1_80)"><g><path d="M258.10594169921876,258.88383404487814C242.53374169921875,258.88383404487814,229.41547169921876,269.5958195800781,225.31024169921875,284.2229195800781C232.98564169921875,276.2885195800781,243.44704169921874,271.40641958007814,254.99704169921876,271.40641958007814L292.26704169921874,271.40641958007814L292.26704169921874,258.8838195800781L258.10594169921876,258.88383404487814Z" fill="#000000" fill-opacity="1"/></g></g></g><g style="opacity:0.05000000074505806;"><g mask="url(#master_svgm_1_786/1_84)"><g style="opacity:0.5;"><path d="M292.2585765625,188.7814894921875L292.2585765625,182.6102294921875C262.8023765625,184.3070794921875,237.2576765625,202.47962949218748,224.0009765625,228.5771294921875L224.0009765625,258.8836294921875C224.0009765625,220.71852949218749,255.2099765625,189.30287949218751,292.2585765625,188.7814894921875Z" fill="#000000" fill-opacity="1"/></g></g><g mask="url(#master_svgn_1_786/1_87)"><g><path d="M258.10581337890625,258.8838195800781C243.05941337890624,258.8838195800781,230.29175337890626,268.8943195800781,225.74371337890625,282.7820195800781C233.24387337890624,274.4873195800781,243.80671337890624,269.3209195800781,255.50431337890626,269.3209195800781L292.25771337890626,269.3209195800781L292.25771337890626,258.88383404487814L258.09671337890626,258.88383404487814L258.10581337890625,258.8838195800781Z" fill="#000000" fill-opacity="1"/></g></g></g><g style="opacity:0.05000000074505806;"><g mask="url(#master_svgo_1_786/1_91)"><g style="opacity:0.5;"><path d="M292.2585765625,188.78169916992186L292.2585765625,183.90914916992188C262.2580765625,185.33109916992188,236.3720765625,204.35674916992187,224.0009765625,231.41174916992188L224.0009765625,258.88384916992186C224.0009765625,220.7186491699219,255.2099765625,189.30306916992188,292.2585765625,188.78169916992186Z" fill="#000000" fill-opacity="1"/></g></g><g mask="url(#master_svgp_1_786/1_94)"><g><path d="M258.1061875,258.8838195800781C243.5763875,258.8838195800781,231.1776875,268.2212895800781,226.2421875,281.3696195800781C233.5393575,272.70511958007813,244.1668875,267.23539958007814,256.0304875,267.23539958007814L292.2672875,267.23539958007814L292.2672875,258.8838195800781L258.1061875,258.8838195800781Z" fill="#000000" fill-opacity="1"/></g></g></g><g style="opacity:0.05000000074505806;"><g mask="url(#master_svgq_1_786/1_000)"><g style="opacity:0.5;"><path d="M292.2585765625,188.78166708984375L292.2585765625,185.23626708984375C261.5661765625,186.36434708984376,235.2373765625,206.46126708984374,224.0009765625,234.70116708984375L224.0009765625,258.88376708984373C224.0009765625,220.71866708984373,255.2099765625,189.30303708984374,292.2585765625,188.78166708984375Z" fill="#000000" fill-opacity="1"/></g></g><g mask="url(#master_svgr_1_786/1_003)"><g><path d="M258.10608691406253,258.8838195800781C244.1021869140625,258.8838195800781,232.0724769140625,267.5576995800781,226.8140869140625,279.95711958007814C233.8529369140625,270.9230195800781,244.5541869140625,265.1498795800781,256.5562869140625,265.1498795800781L292.2671869140625,265.1498795800781L292.2671869140625,258.8838195800781L258.10608691406253,258.8838195800781Z" fill="#000000" fill-opacity="1"/></g></g></g></g></g></g></g></g></svg>